<svg width="76" height="76" viewBox="0 0 76 76" fill="none" xmlns="http://www.w3.org/2000/svg">
<circle cx="38" cy="38" r="38" fill="#FFB92D"/>
<path d="M23.8937 47.7228C22.7314 47.7228 21.6386 48.1754 20.8167 48.9974C19.12 50.6941 19.12 53.4547 20.8167 55.1513C21.6386 55.9733 22.7314 56.426 23.8937 56.426C25.056 56.426 26.1488 55.9733 26.9707 55.1513C27.7926 54.3295 28.2453 53.2367 28.2453 52.0744C28.2453 50.912 27.7926 49.8192 26.9707 48.9974C26.1488 48.1754 25.056 47.7228 23.8937 47.7228V47.7228ZM24.9823 53.1629C24.6915 53.4537 24.3049 53.6139 23.8937 53.6139C23.4825 53.6139 23.0959 53.4537 22.8051 53.1629C22.205 52.5627 22.205 51.586 22.8051 50.9857C23.0959 50.695 23.4825 50.5348 23.8937 50.5348C24.3049 50.5348 24.6915 50.695 24.9823 50.9857C25.273 51.2766 25.4332 51.6632 25.4332 52.0743C25.4332 52.4854 25.273 52.8722 24.9823 53.1629Z" fill="#333333"/>
<path d="M37.9931 33.6234C36.8307 33.6234 35.738 34.0761 34.9161 34.898C33.2194 36.5947 33.2194 39.3554 34.9161 41.052C35.7381 41.8739 36.8307 42.3266 37.9931 42.3266C39.1554 42.3266 40.2482 41.8739 41.07 41.052C42.7667 39.3553 42.7667 36.5947 41.07 34.898C40.2482 34.0761 39.1554 33.6234 37.9931 33.6234V33.6234ZM39.0816 39.0636C38.7908 39.3543 38.4042 39.5145 37.9931 39.5145C37.5818 39.5145 37.1953 39.3543 36.9045 39.0636C36.3043 38.4634 36.3043 37.4866 36.9045 36.8864C37.1953 36.5956 37.5819 36.4354 37.9931 36.4354C38.4043 36.4354 38.7908 36.5956 39.0816 36.8864C39.6819 37.4866 39.6819 38.4634 39.0816 39.0636Z" fill="#333333"/>
<path d="M52.0861 19.5305C50.9238 19.5305 49.831 19.9831 49.0091 20.8051C47.3124 22.5018 47.3124 25.2624 49.0091 26.959C49.831 27.781 50.9238 28.2336 52.0861 28.2336C53.2484 28.2336 54.3412 27.781 55.1631 26.959C56.8598 25.2623 56.8598 22.5017 55.1631 20.8051C54.3412 19.9831 53.2484 19.5305 52.0861 19.5305V19.5305ZM53.1746 24.9706C52.8839 25.2614 52.4972 25.4216 52.0861 25.4216C51.675 25.4216 51.2883 25.2614 50.9975 24.9706C50.3973 24.3704 50.3973 23.3937 50.9975 22.7934C51.2883 22.5026 51.675 22.3424 52.0861 22.3424C52.4972 22.3424 52.8839 22.5026 53.1746 22.7934C53.7748 23.3937 53.7748 24.3704 53.1746 24.9706Z" fill="#333333"/>
<path d="M59.1633 16.9851C57.3029 15.0771 54.8118 14.0171 52.1488 14.0002C52.1272 14 52.1059 14 52.0844 14C49.4452 14 46.9662 15.0264 45.0983 16.8944C43.4223 18.5704 42.4039 20.794 42.2307 23.1554L42.2301 23.1633C42.0209 25.7901 39.9646 27.8728 37.3408 28.1155L37.2731 28.1218C34.9034 28.2905 32.6988 29.294 31.0022 30.9906C29.3312 32.6615 28.3139 34.8769 28.1362 37.2304L28.1334 37.2665C27.9211 39.89 25.8661 41.9692 23.2445 42.2116L23.1536 42.22C20.7995 42.396 18.5828 43.4121 16.9106 45.0821C15.0518 46.9385 14.0182 49.3979 14.0002 52.0073C13.9823 54.6172 14.9825 57.0904 16.8163 58.9713C18.6931 60.8961 21.2066 61.9563 23.8936 61.9564H23.894C26.5333 61.9564 29.0148 60.9285 30.8812 59.062C32.5541 57.3891 33.5718 55.1709 33.7479 52.8145L33.7563 52.7236C33.999 50.0997 36.0817 48.0434 38.7084 47.8341L38.7308 47.8324C41.0846 47.6563 43.3008 46.6403 44.9728 44.9704C46.6685 43.277 47.6769 41.0817 47.8546 38.7286L47.8639 38.6274C48.1066 36.003 50.1844 33.9466 52.8045 33.738L52.8125 33.7374C55.1717 33.5643 57.3936 32.5475 59.0689 30.8743C60.9278 29.0179 61.9613 26.5584 61.9793 23.9491C61.9973 21.3392 60.9972 18.866 59.1633 16.9851V16.9851ZM42.9858 42.9807C41.7871 44.1778 40.1979 44.9052 38.5109 45.0289L38.4853 45.0309C34.4916 45.3491 31.3252 48.4753 30.9564 52.4647L30.9446 52.5953C30.8208 54.2841 30.0922 55.8745 28.893 57.0736C27.5576 58.409 25.7822 59.1444 23.8939 59.1443C21.9714 59.1442 20.173 58.3856 18.83 57.0082C17.5161 55.6606 16.7996 53.8915 16.8124 52.0266C16.8252 50.1617 17.5659 48.4021 18.8979 47.0718C20.0965 45.8747 21.6858 45.1474 23.373 45.0236L23.5036 45.0118C27.4929 44.6428 30.6191 41.4764 30.9373 37.4829L30.9374 37.4817L30.9393 37.4573C31.0632 35.7684 31.7918 34.1781 32.9908 32.979C34.3262 31.6436 36.1017 30.9082 37.9901 30.9082C39.9124 30.9082 41.7107 31.6669 43.0539 33.0444C44.3677 34.392 45.0842 36.161 45.0713 38.0259C45.0584 39.8908 44.3179 41.6504 42.9858 42.9807V42.9807ZM57.0819 28.8846C55.8937 30.0711 54.3218 30.7963 52.6511 30.9294L52.5814 30.9347C50.3259 31.1144 48.3351 32.1934 46.964 33.8187C46.4977 32.8199 45.8606 31.8951 45.0671 31.0812C44.2131 30.2052 43.2269 29.5091 42.1529 29.0096C43.7759 27.6367 44.8534 25.6441 45.0333 23.3866L45.0365 23.3454C45.1637 21.6625 45.8915 20.0782 47.0868 18.8828C48.4341 17.5355 50.2254 16.803 52.131 16.8122C54.0362 16.8243 55.8186 17.5829 57.1499 18.9482C58.4637 20.2958 59.1802 22.0648 59.1673 23.9297C59.1546 25.7946 58.414 27.5543 57.0819 28.8846V28.8846Z" fill="#333333"/>
</svg>
