<svg width="76" height="76" viewBox="0 0 76 76" fill="none" xmlns="http://www.w3.org/2000/svg">
<circle cx="38" cy="38" r="38" fill="#FFB92D"/>
<path d="M66.6892 31C66.6892 31 57.4125 31.3617 53.7946 31.3751C50.1762 31.3885 48.5934 34.4806 48.5934 34.4806C48.5934 34.4806 30.1154 34.5291 27.0999 34.4806C25.3289 31.2255 21.9658 31.3751 21.9658 31.3751C21.9658 31.3751 10.5086 31.423 9.3599 31.3751C8.84281 31.5492 8.91876 32.7306 9.3599 33.0503C9.91497 33.0503 20.0038 33.0403 21.9658 33.1461C24.1756 33.2653 25.1729 34.726 25.1729 34.726C25.1729 34.726 27.1139 37.908 29.4809 41.8098C31.8419 45.7023 34.459 45.5463 34.459 45.5463C34.459 45.5463 37.1543 45.5428 40.5536 45.5463C43.0193 45.5481 44.3427 44.6635 45.3477 43.4669C46.3526 42.2708 49.0584 37.5977 49.0584 37.5977C49.0584 37.5977 51.1151 33.5603 53.031 33.2898C54.4701 33.0871 66.7704 32.8113 66.7704 32.8113C67.3307 31.7368 66.6892 31 66.6892 31ZM44.0909 41.842C43.0456 43.423 41.5183 43.558 41.5183 43.558H37.7654C37.7654 43.558 36.8271 43.5042 34.8972 43.558C32.9673 43.6118 31.7876 41.9495 31.7876 41.9495L28.8124 37.3389L29.0538 36.8294H46.6109L46.9597 37.3652C46.9591 37.3658 45.1367 40.2609 44.0909 41.842Z" fill="black" stroke="black" stroke-miterlimit="10" stroke-linecap="round" stroke-linejoin="round"/>
</svg>
