<svg width="76" height="76" viewBox="0 0 76 76" fill="none" xmlns="http://www.w3.org/2000/svg">
<circle cx="38" cy="38" r="38" fill="#FFB92D"/>
<path d="M48.5904 26.6853C48.2362 25.8205 47.0624 25.0323 46.1277 25.0323H28.9945C28.1243 25.0323 27.1238 25.797 26.8953 26.6356L24.2754 36.2316C23.9495 37.4243 23.9495 39.5168 24.2754 40.7088L26.8947 50.3055C27.1238 51.1447 28.1236 51.9087 28.9938 51.9087H46.127C47.0617 51.9087 48.2356 51.1205 48.5897 50.2558L52.6066 40.4481C53.0299 39.4126 53.0299 37.5278 52.6066 36.4923L48.5904 26.6853ZM27.8038 48.5315L27.2125 46.3639L31.7454 41.8303H34.5037L27.8038 48.5315ZM27.8038 28.4109L34.5037 35.1108H31.7454L27.2125 30.5786L27.8038 28.4109ZM30.7496 39.8144H29.4057V37.126H30.7496V39.8144ZM32.0935 40.4864V36.4547H51.139L51.3628 37.0017C51.6497 37.7018 51.6497 39.2386 51.3628 39.9387L51.139 40.4864H32.0935ZM28.9945 26.3762H46.1277C46.5161 26.3762 47.1994 26.8352 47.3459 27.1947L50.588 35.1108H36.404L28.2244 26.9313C28.3387 26.6813 28.7465 26.3762 28.9945 26.3762V26.3762ZM25.5723 36.5857L26.8046 32.071L30.5158 35.7814H28.7338C28.3622 35.7814 28.0618 36.0818 28.0618 36.4534V40.4864C28.0618 40.858 28.3622 41.1583 28.7338 41.1583H30.5171L26.8046 44.8708L25.5723 40.354C25.3069 39.3857 25.3069 37.5554 25.5723 36.5857V36.5857ZM47.3459 49.7464C47.1988 50.1059 46.5161 50.5648 46.1277 50.5648H28.9945C28.7465 50.5648 28.34 50.2605 28.2251 50.0105L36.4047 41.8303H50.588L47.3459 49.7464Z" fill="#333333"/>
<path d="M62.3296 35.1095H58.9699C58.9685 34.7386 58.6688 34.4389 58.2979 34.4389C57.927 34.4389 57.6273 34.7386 57.626 35.1095H56.3869C56.3694 35.0631 56.3567 35.0114 56.3379 34.965L52.321 25.1573C51.35 22.7874 48.6871 21 46.127 21H28.9945C26.3376 21 23.7069 23.0084 23.0054 25.5726L20.3855 35.1693C19.8715 37.0521 19.8715 39.8897 20.3855 41.7711L23.0048 51.3685C23.7063 53.9319 26.3369 55.9404 28.9938 55.9404H46.127C48.6871 55.9404 51.3493 54.1537 52.321 51.7831L56.3379 41.9754C56.3567 41.9297 56.3694 41.8773 56.3869 41.8302H57.626C57.6266 42.2018 57.9263 42.5022 58.2979 42.5022C58.6695 42.5022 58.9692 42.2018 58.9699 41.8309H62.3296C62.7012 41.8309 63.0015 41.5306 63.0015 41.159V35.7814C63.0015 35.4098 62.7012 35.1095 62.3296 35.1095V35.1095ZM60.9857 36.4534H61.6576V40.487H60.9857V36.4534ZM59.6418 40.487H58.9699V36.4534H59.6418V40.487ZM51.0772 51.2744C50.3018 53.1679 48.1737 54.5965 46.1277 54.5965H28.9945C26.9121 54.5965 24.8513 53.0228 24.3023 51.0144L21.6824 41.417C21.2308 39.7654 21.2308 37.1764 21.6824 35.5234L24.3016 25.9274C24.8506 23.9182 26.9121 22.3446 28.9938 22.3446H46.127C48.1731 22.3446 50.3011 23.7731 51.0765 25.6666L55.0934 35.4743C55.7808 37.1542 55.7808 39.7869 55.0934 41.4667L51.0772 51.2744ZM56.7652 36.4534H57.626V40.487H56.7659C57.0185 39.1908 57.0185 37.7495 56.7652 36.4534V36.4534Z" fill="#333333"/>
<path d="M46.2023 37.7986H36.7957C36.4241 37.7986 36.1238 38.0989 36.1238 38.4705C36.1238 38.8421 36.4241 39.1425 36.7957 39.1425H46.2023C46.5738 39.1425 46.8742 38.8421 46.8742 38.4705C46.8742 38.0989 46.5738 37.7986 46.2023 37.7986Z" fill="#333333"/>
</svg>
