<svg width="76" height="76" viewBox="0 0 76 76" fill="none" xmlns="http://www.w3.org/2000/svg">
<circle cx="38" cy="38" r="38" fill="#FFB92D"/>
<path d="M54.5914 26.3684C54.9982 26.2529 55.3557 26.0096 55.6099 25.6756C55.864 25.3415 56.001 24.9348 56 24.517V24.2031C56.0001 23.7011 55.8012 23.2189 55.4458 22.8598C55.0904 22.5006 54.6066 22.293 54.0981 22.2812H54.0526C47.8341 22.7233 26.4066 21 26.1404 21C21.4018 21 19.0001 23.3703 19.0001 28.0469C18.9954 28.8118 19.1686 29.5676 19.5062 30.2561C19.8437 30.9447 20.3368 31.5477 20.9475 32.0188C21.6317 32.5553 22.4272 32.9367 23.2775 33.136C24.1278 33.3353 25.0122 33.3475 25.8678 33.1719L30.0352 37.2783V38.9375C30.0352 39.1074 30.1035 39.2704 30.2253 39.3905C30.347 39.5106 30.5121 39.5781 30.6843 39.5781H32.1578L38.4413 58.7969H37.1755C37.0033 58.7969 36.8382 58.8644 36.7165 58.9845C36.5948 59.1046 36.5264 59.2676 36.5264 59.4375V61.3594C36.5264 61.5293 36.5948 61.6922 36.7165 61.8124C36.8382 61.9325 37.0033 62 37.1755 62H44.9649C45.1371 62 45.3022 61.9325 45.4239 61.8124C45.5457 61.6922 45.6141 61.5293 45.6141 61.3594V59.4375C45.6141 59.2676 45.5457 59.1046 45.4239 58.9845C45.3022 58.8644 45.1371 58.7969 44.9649 58.7969H43.6667C43.6772 58.7311 43.6772 58.6641 43.6667 58.5983L37.4157 39.5781H38.4737C38.6459 39.5781 38.811 39.5106 38.9327 39.3905C39.0545 39.2704 39.1228 39.1074 39.1228 38.9375V37.0156C39.1205 36.9216 39.0971 36.8292 39.0545 36.745C39.0119 36.6609 38.951 36.5871 38.8762 36.5287L44.1211 27.8995L54.507 26.3877L54.5914 26.3684ZM44.3158 60.0781V60.7188H37.8246V60.0781H44.3158ZM30.9504 36.375L27.2569 32.7298C28.1397 32.3839 29.1653 31.897 30.178 31.3909L31.1906 36.375H30.9504ZM37.8246 38.2969H31.3334V37.6562H37.8246V38.2969ZM37.4546 36.375H32.5148L31.3788 30.7823L31.8462 30.5453C32.8978 30.0072 33.9818 29.4498 34.3778 29.3217L42.4658 28.143L37.4546 36.375Z" fill="#333333"/>
</svg>
