<svg width="500" height="500" viewBox="0 0 500 500" fill="none" xmlns="http://www.w3.org/2000/svg">
<path d="M393.16 244C392.584 244.983 391.847 245.862 390.98 246.6C388.982 248.365 386.516 249.515 383.88 249.911C381.243 250.307 378.548 249.931 376.12 248.83C373.832 247.79 371.864 246.157 370.42 244.1C368.83 241.816 367.95 239.113 367.89 236.33C367.824 233.329 368.724 230.386 370.458 227.935C372.192 225.485 374.668 223.656 377.52 222.72C380.163 221.842 383.007 221.773 385.69 222.52C387.953 223.145 390.021 224.332 391.703 225.97C393.384 227.608 394.625 229.644 395.31 231.89C396.23 234.911 396.082 238.156 394.89 241.08C394.478 242.142 393.893 243.128 393.16 244C393.696 243.026 394.18 242.025 394.61 241C395.655 238.131 395.711 234.995 394.77 232.09C394.137 230.103 393.044 228.294 391.58 226.81C389.907 225.103 387.808 223.874 385.5 223.25C382.954 222.561 380.261 222.641 377.76 223.48C375.071 224.374 372.738 226.104 371.101 228.418C369.464 230.731 368.609 233.507 368.66 236.34C368.669 237.68 368.892 239.01 369.32 240.28C369.705 241.508 370.278 242.668 371.02 243.72C372.377 245.684 374.229 247.254 376.39 248.27C378.281 249.153 380.353 249.581 382.44 249.52C385.49 249.441 388.426 248.342 390.78 246.4C391.614 245.641 392.408 244.84 393.16 244Z" fill="#E0E0E0"/>
<path d="M402.47 259.82C402.628 259.858 402.782 259.911 402.93 259.98L404.29 260.51L409.66 262.66H409.51L416.83 252.19V252.44L411.65 246.71L411.55 246.61L411.6 246.48C412.558 243.882 413.163 241.168 413.4 238.41V238.25L413.54 238.19L420.67 235.19L420.5 235.5C419.81 231.5 419.08 227.32 418.32 222.91L418.61 223.16L410.89 222.77H410.69L410.61 222.59C409.461 220.072 407.981 217.718 406.21 215.59L406.08 215.43L406.16 215.24C407.07 213.03 408.08 210.59 409.1 208.1L409.22 208.52L398.78 201.15H399.24L393.5 206.31L393.33 206.46L393.12 206.39C390.545 205.433 387.855 204.821 385.12 204.57H384.89L384.8 204.36C383.88 202.12 382.87 199.69 381.8 197.22L382.23 197.46L369.63 199.62L369.95 199.25C369.82 201.69 369.68 204.32 369.54 206.97V207.21L369.33 207.3C366.813 208.443 364.459 209.916 362.33 211.68V211.68L361.93 211.74H361.88H361.82H361.71L361.49 211.65L361.04 211.46L360.14 211.09L358.35 210.35L354.8 208.87L355.27 208.73L347.88 219.17V218.68L353.04 224.43L353.2 224.6L353.12 224.82C352.162 227.395 351.547 230.085 351.29 232.82V233.05L351.08 233.14L343.94 236.14L344.17 235.73C344.903 240.03 345.617 244.23 346.31 248.33L346 248L353.72 248.42H353.93L354.02 248.62C355.157 251.14 356.63 253.495 358.4 255.62L358.53 255.78L358.45 255.97C357.45 258.41 356.45 260.78 355.45 263.09L355.34 262.7L365.76 270.11H365.38L371.14 264.96L371.26 264.84L371.42 264.9C374.008 265.874 376.716 266.497 379.47 266.75H379.63L379.69 266.89C380.76 269.49 381.69 271.83 382.62 274.04L382.37 273.9L394.97 271.8L394.83 271.96C395.01 268.88 395.16 266.36 395.29 264.25V264.17H395.36C397.27 263.316 399.092 262.278 400.8 261.07L402.05 260.15C402.178 260.039 402.315 259.938 402.46 259.85C402.349 259.979 402.225 260.096 402.09 260.2C401.83 260.42 401.43 260.76 400.87 261.2C399.188 262.462 397.378 263.545 395.47 264.43L395.54 264.32C395.44 266.43 395.32 268.96 395.18 272.04V272.18H395.04L382.46 274.39H382.27L382.2 274.22C381.28 272.01 380.31 269.68 379.2 267.09L379.42 267.25C376.617 267.007 373.858 266.388 371.22 265.41L371.5 265.36L365.77 270.54L365.59 270.7L365.4 270.56L355 263.19L354.79 263.04L354.89 262.8C355.84 260.48 356.82 258.11 357.83 255.66L357.89 256.01C356.078 253.849 354.564 251.454 353.39 248.89L353.69 249.09L345.97 248.69H345.69L345.64 248.4C344.927 244.313 344.203 240.117 343.47 235.81L343.42 235.51L343.69 235.4L350.83 232.4L350.6 232.72C350.844 229.905 351.47 227.136 352.46 224.49L352.53 224.88L347.36 219.14L347.16 218.91L347.34 218.66L354.72 208.22L354.9 207.96L355.19 208.08L358.74 209.56L360.53 210.3L361.43 210.67L361.88 210.86L362.1 210.95L362.22 211H362.27H362.32L361.92 211.06C364.091 209.254 366.492 207.744 369.06 206.57L368.83 206.91C368.97 204.26 369.11 201.63 369.24 199.19V198.88H369.55L382.15 196.72L382.45 196.67L382.57 196.96C383.57 199.42 384.57 201.86 385.52 204.1L385.2 203.87C388.01 204.126 390.774 204.751 393.42 205.73L393.04 205.81L398.79 200.65L399.01 200.46L399.25 200.63L409.66 208L409.89 208.16L409.78 208.42L406.78 215.55L406.73 215.2C408.532 217.37 410.035 219.771 411.2 222.34L410.93 222.15L418.64 222.57H418.89V222.81C419.64 227.23 420.35 231.44 421.02 235.41V235.63L420.82 235.72L413.67 238.65L413.83 238.44C413.564 241.237 412.932 243.987 411.95 246.62L411.9 246.39L417.04 252.15L417.15 252.27L417.05 252.4L409.61 262.79L409.55 262.87H409.46L404.19 260.62L402.84 260.02L402.47 259.82Z" fill="#E0E0E0"/>
<path fill-rule="evenodd" clip-rule="evenodd" d="M390.2 164.69C387.164 167.223 383.8 169.335 380.2 170.97L379.62 181.88L361.81 184.93L357.63 174.83C353.702 174.477 349.838 173.603 346.14 172.23L338.02 179.53L323.3 169.09L327.48 159C324.95 155.963 322.841 152.6 321.21 149L310.3 148.42L307.25 130.61L317.34 126.44C317.718 122.526 318.612 118.679 320 115L312.7 106.89L323.09 92.1L333.17 96.28C336.212 93.7577 339.575 91.6494 343.17 90.01L343.75 79.1L361.57 76.1L365.74 86.2C369.669 86.5477 373.534 87.4222 377.23 88.8L385.35 81.5L400.1 91.94L395.89 102C398.42 105.038 400.533 108.401 402.17 112L413.08 112.58L416.13 130.39L406 134.51C405.648 138.439 404.774 142.303 403.4 146L410.7 154.12L400.26 168.87L390.17 164.69H390.2ZM377 142.36C379.217 139.229 380.456 135.511 380.559 131.675C380.662 127.84 379.625 124.061 377.579 120.815C375.533 117.57 372.571 115.004 369.066 113.443C365.562 111.881 361.673 111.395 357.892 112.045C354.11 112.694 350.607 114.451 347.825 117.093C345.043 119.735 343.107 123.142 342.262 126.885C341.417 130.627 341.701 134.536 343.079 138.116C344.456 141.697 346.865 144.789 350 147C354.198 149.958 359.398 151.13 364.459 150.26C369.52 149.391 374.03 146.55 377 142.36V142.36Z" fill="#E0E0E0"/>
<path fill-rule="evenodd" clip-rule="evenodd" d="M166.5 161.41C169.047 164.133 171.22 167.183 172.96 170.48H183.28L187.12 187.13L177.82 191.61C177.704 195.343 177.085 199.043 175.98 202.61L183.31 209.88L174.25 224.36L164.51 220.96C161.789 223.509 158.739 225.682 155.44 227.42V237.75L138.8 241.58L134.31 232.28C130.577 232.163 126.877 231.544 123.31 230.44L116.04 237.77L101.56 228.71L104.96 218.97C102.411 216.249 100.238 213.199 98.5 209.9H88.18L84.4 193.24L93.7 188.75C93.8216 185.018 94.4404 181.319 95.54 177.75L88.21 170.48L97.27 156L107.01 159.4C109.731 156.851 112.781 154.678 116.08 152.94V142.62L132.73 138.78L137.21 148.08C140.942 148.201 144.642 148.82 148.21 149.92L155.48 142.6L169.96 151.6L166.56 161.34L166.5 161.41ZM146.13 175C143.054 173.092 139.481 172.138 135.863 172.258C132.245 172.378 128.744 173.568 125.801 175.677C122.859 177.786 120.607 180.719 119.33 184.106C118.053 187.494 117.808 191.184 118.627 194.71C119.445 198.236 121.29 201.441 123.929 203.92C126.567 206.399 129.881 208.04 133.451 208.637C137.022 209.234 140.689 208.76 143.991 207.274C147.292 205.789 150.079 203.358 152 200.29C153.28 198.245 154.144 195.968 154.542 193.589C154.94 191.21 154.864 188.776 154.318 186.426C153.773 184.076 152.769 181.857 151.364 179.896C149.958 177.936 148.18 176.272 146.13 175V175Z" fill="#E0E0E0"/>
<path fill-rule="evenodd" clip-rule="evenodd" d="M176.56 91.41C177.963 92.9136 179.164 94.5946 180.13 96.41H185.85L187.97 105.63L182.82 108.11C182.759 110.172 182.423 112.217 181.82 114.19L185.87 118.19L180.87 126.19L175.48 124.31C173.98 125.718 172.299 126.919 170.48 127.88V133.6L161.26 135.72L158.78 130.58C156.718 130.515 154.674 130.178 152.7 129.58L148.7 133.63L140.7 128.63L142.59 123.23C141.179 121.73 139.975 120.049 139.01 118.23H133.3L131.1 109L136.25 106.52C136.31 104.458 136.647 102.413 137.25 100.44L133.19 96.44L138.19 88.44L143.58 90.32C145.083 88.9136 146.764 87.7101 148.58 86.74V81.03L157.8 78.9L160.32 84C162.382 84.0613 164.427 84.3976 166.4 85L170.4 80.94L178.4 85.94L176.52 91.33L176.56 91.41ZM165.28 99C163.579 97.9397 161.603 97.407 159.6 97.4692C157.597 97.5314 155.657 98.1857 154.026 99.3496C152.395 100.513 151.145 102.134 150.434 104.008C149.723 105.882 149.584 107.924 150.033 109.877C150.482 111.83 151.5 113.606 152.958 114.981C154.416 116.356 156.248 117.268 158.224 117.602C160.2 117.937 162.231 117.678 164.06 116.859C165.888 116.039 167.434 114.697 168.5 113C169.21 111.87 169.69 110.611 169.913 109.295C170.135 107.979 170.096 106.632 169.797 105.331C169.498 104.031 168.945 102.802 168.17 101.715C167.394 100.629 166.412 99.7062 165.28 99Z" fill="#E0E0E0"/>
<path d="M96.39 108.44C96.5504 108.513 96.7043 108.6 96.85 108.7C97.2787 108.985 97.6715 109.321 98.02 109.7C99.3739 111.036 100.213 112.806 100.39 114.7C100.524 116.006 100.349 117.324 99.88 118.55C99.3347 119.957 98.4233 121.193 97.24 122.13C96.6025 122.638 95.8909 123.047 95.13 123.34C94.3434 123.665 93.5093 123.861 92.66 123.92C90.8598 124.053 89.0639 123.612 87.53 122.66C86.0007 121.703 84.8194 120.279 84.16 118.6C83.8444 117.811 83.6521 116.978 83.59 116.13C83.5252 115.316 83.5825 114.497 83.76 113.7C84.0832 112.224 84.7983 110.863 85.83 109.76C86.921 108.589 88.3275 107.758 89.88 107.367C91.4325 106.977 93.0647 107.044 94.58 107.56C95.0596 107.72 95.5192 107.935 95.95 108.2C96.1061 108.285 96.2535 108.386 96.39 108.5C96.39 108.56 95.75 108.14 94.52 107.75C92.7693 107.226 90.8941 107.3 89.19 107.96C87.9362 108.44 86.822 109.226 85.9489 110.245C85.0757 111.265 84.4711 112.487 84.19 113.8C84.0279 114.552 83.9807 115.324 84.05 116.09C84.1116 116.89 84.2971 117.676 84.6 118.42C85.2249 119.992 86.3355 121.323 87.77 122.22C89.2092 123.111 90.8916 123.527 92.58 123.41C93.3798 123.357 94.1661 123.178 94.91 122.88C95.6319 122.611 96.3068 122.229 96.91 121.75C97.967 120.933 98.8027 119.865 99.3407 118.642C99.8787 117.419 100.102 116.081 99.99 114.75C99.8421 112.93 99.0887 111.212 97.85 109.87C97 108.85 96.35 108.49 96.39 108.44Z" fill="#E0E0E0"/>
<path d="M105.52 102.33C105.52 102.33 105.52 102.24 105.6 102.05L105.87 101.22L106.97 97.93V98.03L100.45 94.03H100.62L97.37 97.33L97.31 97.4H97.22C95.6324 96.9189 93.9881 96.6499 92.33 96.6H92.23L92.18 96.5L90.18 92.34L90.38 92.44L82.92 94.18L83.08 93.98C83.08 95.41 83.08 96.98 83.08 98.61V98.74L82.97 98.8C81.5171 99.5779 80.1723 100.543 78.97 101.67L78.87 101.77H78.74L74.37 100.25L74.64 100.16L70.64 106.66V106.36L73.93 109.61L74.04 109.72V109.86C73.553 111.436 73.2805 113.071 73.23 114.72V114.88L73.09 114.94L68.92 116.94L69.06 116.65C69.61 119.01 70.19 121.55 70.79 124.12L70.53 123.92H75.16H75.32L75.4 124.06C76.1642 125.516 77.123 126.862 78.25 128.06C78.25 128.17 78.25 127.79 78.31 128.32V128.38V128.44V128.58L78.22 128.86L78.03 129.41L77.64 130.5C77.39 131.23 77.13 131.96 76.88 132.68L76.77 132.38L83.27 136.44H82.95C84.05 135.33 85.14 134.24 86.21 133.15L86.32 133.04L86.47 133.09C88.0465 133.576 89.6811 133.848 91.33 133.9H91.48L91.55 134.04L93.55 138.21L93.27 138.08L100.73 136.36L100.55 136.6C100.55 135.03 100.55 133.48 100.55 131.97V131.82L100.67 131.76C102.122 130.985 103.467 130.023 104.67 128.9L104.77 128.81L104.89 128.86L109.26 130.39L109.01 130.48L113.08 123.99V124.24L109.81 120.97L109.72 120.89V120.78C110.209 119.197 110.488 117.556 110.55 115.9V115.8H110.65L114.83 113.8L114.74 113.97C114.09 111.08 113.53 108.61 113.06 106.5L113.17 106.59H108.54C107.974 105.48 107.304 104.425 106.54 103.44L105.94 102.72L105.75 102.48C105.833 102.543 105.91 102.613 105.98 102.69C106.12 102.84 106.33 103.07 106.6 103.39C107.419 104.349 108.13 105.396 108.72 106.51H108.65H113.28H113.37V106.61C113.87 108.71 114.45 111.18 115.13 114.06V114.18L115.02 114.24L110.86 116.24L110.95 116.1C110.902 117.795 110.63 119.476 110.14 121.1V120.91L113.43 124.17L113.55 124.28L113.46 124.41L109.46 130.92L109.37 131.07L109.21 131.01L104.84 129.49H105.06C103.828 130.65 102.445 131.638 100.95 132.43L101.07 132.22C101.07 133.74 101.07 135.28 101.07 136.86V137.05H100.88L93.42 138.78H93.23L93.14 138.61C92.48 137.23 91.81 135.85 91.14 134.44L91.36 134.58C89.6638 134.527 87.9824 134.248 86.36 133.75L86.62 133.68L83.36 136.97L83.21 137.12L83.04 137.01L76.54 132.95L76.36 132.84L76.43 132.64C76.68 131.92 76.94 131.19 77.19 130.46L77.57 129.36L77.77 128.82L77.86 128.54L77.91 128.4V128.33C78.02 128.86 77.91 128.47 77.91 128.59C76.7529 127.354 75.7673 125.969 74.98 124.47L75.21 124.61H70.21V124.41C69.62 121.84 69.04 119.31 68.49 116.94V116.75L68.67 116.66L72.85 114.66L72.7 114.88C72.758 113.184 73.0404 111.502 73.54 109.88L73.6 110.13C72.47 108.99 71.34 107.88 70.32 106.86L70.19 106.72L70.29 106.56L74.36 100.07L74.46 99.91L74.63 99.97L79 101.51H78.77C80.0097 100.361 81.3949 99.379 82.89 98.59L82.78 98.78C82.78 97.16 82.78 95.58 82.78 94.15V93.99H82.94L90.31 92H90.46L90.52 92.14C91.22 93.6 91.9 95.01 92.52 96.32L92.37 96.22C94.0673 96.2777 95.749 96.5636 97.37 97.07H97.21L100.49 93.8L100.56 93.72L100.65 93.78L107.12 97.88H107.18V97.94C106.67 99.33 106.28 100.41 106 101.16L105.69 102C105.647 102.116 105.59 102.227 105.52 102.33V102.33Z" fill="#E0E0E0"/>
<path d="M333.66 445.87L200.79 445.26C193.118 445.22 185.776 442.136 180.377 436.685C174.979 431.234 171.965 423.862 172 416.19L173.4 83.11C173.416 79.3079 174.181 75.5461 175.651 72.0396C177.121 68.5332 179.268 65.3508 181.968 62.6743C184.669 59.9979 187.87 57.8798 191.39 56.4412C194.909 55.0026 198.678 54.2716 202.48 54.29L335.34 54.9C339.142 54.9183 342.903 55.6857 346.409 57.1583C349.914 58.6309 353.095 60.7798 355.77 63.4823C358.445 66.1848 360.56 69.3878 361.997 72.9083C363.433 76.4288 364.161 80.1979 364.14 84L362.73 417.09C362.69 424.761 359.606 432.102 354.154 437.499C348.703 442.896 341.331 445.907 333.66 445.87Z" fill="#455A64"/>
<path d="M335.14 66.39L309.38 66.28C308.54 66.2943 307.711 66.4741 306.941 66.8092C306.17 67.1442 305.473 67.6279 304.89 68.2326C304.307 68.8373 303.848 69.551 303.541 70.3331C303.234 71.1151 303.084 71.95 303.1 72.79V77.46C303.12 78.3041 302.972 79.1439 302.666 79.9306C302.359 80.7174 301.9 81.4356 301.314 82.0438C300.728 82.6519 300.028 83.1379 299.253 83.4737C298.478 83.8094 297.644 83.9883 296.8 84L246.59 83.77C244.893 83.7229 243.285 83.0047 242.117 81.773C240.949 80.5414 240.317 78.8968 240.36 77.2V72.53C240.403 70.8332 239.771 69.1886 238.603 67.9569C237.436 66.7252 235.827 66.0071 234.13 65.96H225.07L202.53 65.85C197.162 65.8313 192.005 67.9419 188.191 71.7191C184.376 75.4963 182.214 80.6318 182.18 86L180.81 411.11C180.801 413.771 181.316 416.407 182.325 418.868C183.335 421.33 184.82 423.569 186.695 425.456C188.569 427.344 190.798 428.844 193.252 429.871C195.707 430.898 198.339 431.431 201 431.44L333.6 432.05C336.262 432.063 338.901 431.551 341.365 430.544C343.83 429.537 346.072 428.054 347.962 426.18C349.853 424.306 351.356 422.077 352.385 419.622C353.414 417.166 353.95 414.532 353.96 411.87L355.34 86.75C355.359 81.3722 353.242 76.207 349.454 72.3893C345.666 68.5716 340.518 66.4138 335.14 66.39Z" fill="#FAFAFA"/>
<path d="M296.38 153.15H244.33C238.94 153.15 234.57 157.52 234.57 162.91V214.96C234.57 220.35 238.94 224.72 244.33 224.72H296.38C301.77 224.72 306.14 220.35 306.14 214.96V162.91C306.14 157.52 301.77 153.15 296.38 153.15Z" fill="#FFB92D"/>
<path d="M215.68 179.18L217.41 182.68L221.27 183.24L218.47 185.96L219.13 189.8L215.68 187.99L212.23 189.8L212.89 185.96L210.1 183.24L213.96 182.68L215.68 179.18Z" fill="#FFB92D"/>
<path d="M327.18 144.53L328.51 147.23L331.5 147.67L329.34 149.77L329.85 152.74L327.18 151.34L324.51 152.74L325.02 149.77L322.86 147.67L325.85 147.23L327.18 144.53Z" fill="#FFB92D"/>
<path d="M324.56 209.38L325.71 210.95L327.66 210.89L326.53 212.47L327.19 214.31L325.33 213.72L323.79 214.91L323.78 212.96L322.17 211.87L324.02 211.25L324.56 209.38Z" fill="#FFB92D"/>
<path d="M214.36 156C213.997 156.002 213.642 155.896 213.34 155.696C213.037 155.495 212.801 155.21 212.661 154.875C212.521 154.54 212.484 154.171 212.555 153.816C212.625 153.46 212.799 153.133 213.056 152.876C213.313 152.62 213.64 152.445 213.995 152.375C214.351 152.304 214.72 152.342 215.055 152.481C215.39 152.621 215.675 152.857 215.876 153.16C216.076 153.462 216.182 153.817 216.18 154.18C216.177 154.662 215.985 155.123 215.644 155.464C215.303 155.805 214.842 155.997 214.36 156V156ZM214.36 153.35C214.195 153.348 214.034 153.395 213.896 153.485C213.758 153.575 213.65 153.704 213.586 153.855C213.522 154.007 213.504 154.174 213.535 154.336C213.566 154.497 213.644 154.646 213.76 154.763C213.875 154.88 214.023 154.96 214.184 154.993C214.346 155.026 214.513 155.01 214.665 154.948C214.818 154.885 214.948 154.779 215.039 154.642C215.131 154.506 215.18 154.345 215.18 154.18C215.184 154.069 215.166 153.959 215.127 153.856C215.087 153.752 215.028 153.657 214.951 153.577C214.875 153.497 214.783 153.433 214.682 153.389C214.58 153.345 214.471 153.321 214.36 153.32V153.35Z" fill="#FFB92D"/>
<path d="M317.54 181.2C317.177 181.202 316.822 181.096 316.52 180.896C316.217 180.695 315.981 180.41 315.841 180.075C315.702 179.74 315.664 179.371 315.735 179.015C315.805 178.66 315.98 178.333 316.236 178.076C316.493 177.819 316.82 177.645 317.175 177.575C317.531 177.504 317.9 177.542 318.235 177.681C318.57 177.821 318.855 178.057 319.056 178.36C319.256 178.662 319.362 179.017 319.36 179.38C319.357 179.862 319.165 180.323 318.824 180.664C318.483 181.005 318.022 181.197 317.54 181.2V181.2ZM317.54 178.55C317.375 178.548 317.214 178.595 317.076 178.685C316.938 178.775 316.83 178.904 316.766 179.055C316.702 179.207 316.684 179.374 316.715 179.536C316.746 179.697 316.824 179.846 316.94 179.963C317.055 180.08 317.203 180.16 317.364 180.193C317.526 180.226 317.693 180.21 317.845 180.148C317.998 180.085 318.128 179.979 318.219 179.842C318.311 179.705 318.36 179.545 318.36 179.38C318.36 179.162 318.274 178.952 318.12 178.797C317.967 178.641 317.758 178.553 317.54 178.55V178.55Z" fill="#FFB92D"/>
<path d="M293.72 142.68C293.358 142.68 293.003 142.572 292.702 142.371C292.401 142.169 292.167 141.883 292.028 141.548C291.89 141.213 291.854 140.845 291.926 140.489C291.997 140.134 292.173 139.808 292.43 139.552C292.686 139.297 293.013 139.123 293.369 139.054C293.725 138.984 294.093 139.022 294.427 139.162C294.761 139.302 295.047 139.538 295.246 139.841C295.446 140.143 295.552 140.498 295.55 140.86C295.55 141.1 295.503 141.337 295.411 141.559C295.318 141.78 295.183 141.981 295.013 142.151C294.843 142.32 294.642 142.453 294.42 142.544C294.198 142.635 293.96 142.681 293.72 142.68V142.68ZM293.72 140.03C293.556 140.03 293.395 140.079 293.259 140.17C293.122 140.261 293.016 140.391 292.953 140.542C292.89 140.694 292.874 140.861 292.906 141.022C292.938 141.183 293.017 141.331 293.133 141.447C293.249 141.563 293.397 141.642 293.558 141.674C293.719 141.706 293.886 141.69 294.038 141.627C294.189 141.564 294.319 141.458 294.41 141.321C294.501 141.185 294.55 141.024 294.55 140.86C294.554 140.749 294.536 140.637 294.496 140.533C294.456 140.429 294.395 140.334 294.318 140.254C294.24 140.173 294.147 140.11 294.045 140.066C293.942 140.022 293.832 140 293.72 140V140.03Z" fill="#FFB92D"/>
<path d="M204.43 214.8C205.165 214.8 205.76 214.205 205.76 213.47C205.76 212.735 205.165 212.14 204.43 212.14C203.696 212.14 203.1 212.735 203.1 213.47C203.1 214.205 203.696 214.8 204.43 214.8Z" fill="#FFB92D"/>
<path d="M266.87 232.39C266.87 232.653 266.792 232.91 266.646 233.129C266.5 233.348 266.292 233.518 266.049 233.619C265.806 233.719 265.539 233.746 265.281 233.694C265.023 233.643 264.786 233.516 264.6 233.33C264.414 233.144 264.287 232.907 264.236 232.649C264.184 232.391 264.211 232.124 264.311 231.881C264.412 231.638 264.582 231.43 264.801 231.284C265.02 231.138 265.277 231.06 265.54 231.06C265.715 231.059 265.889 231.092 266.051 231.159C266.213 231.225 266.36 231.323 266.484 231.447C266.607 231.57 266.705 231.717 266.772 231.879C266.838 232.041 266.871 232.215 266.87 232.39Z" fill="#FFB92D"/>
<path d="M252.69 128.74C253.425 128.74 254.02 128.145 254.02 127.41C254.02 126.676 253.425 126.08 252.69 126.08C251.956 126.08 251.36 126.676 251.36 127.41C251.36 128.145 251.956 128.74 252.69 128.74Z" fill="#FFB92D"/>
<path d="M280 176.4C281.082 177.207 282.051 178.156 282.88 179.22L286.56 178.55L288.99 184.24L285.99 186.43C286.167 187.758 286.167 189.103 285.99 190.43L289.07 192.55L286.76 198.3L283.07 197.7C282.26 198.785 281.308 199.757 280.24 200.59L280.92 204.27L275.22 206.7L273.03 203.7C271.705 203.899 270.359 203.916 269.03 203.75L266.9 206.82L261.16 204.52L261.75 200.83C260.668 200.019 259.7 199.068 258.87 198L255.19 198.67L252.78 193L255.78 190.81C255.604 189.483 255.604 188.138 255.78 186.81L252.7 184.69L255.01 178.94L258.7 179.54C259.507 178.458 260.456 177.49 261.52 176.66L260.85 172.98L266.54 170.55L268.74 173.55C270.066 173.361 271.41 173.344 272.74 173.5L274.87 170.43L280.61 172.73L280.02 176.43L280 176.4ZM273.6 182.56C272.381 182.071 271.044 181.954 269.759 182.224C268.474 182.494 267.297 183.14 266.379 184.079C265.46 185.018 264.841 186.209 264.599 187.5C264.358 188.791 264.504 190.125 265.021 191.332C265.537 192.54 266.4 193.568 267.5 194.285C268.601 195.002 269.889 195.377 271.203 195.361C272.516 195.346 273.796 194.942 274.879 194.199C275.963 193.457 276.802 192.409 277.29 191.19C277.947 189.561 277.931 187.739 277.247 186.121C276.563 184.504 275.266 183.224 273.64 182.56H273.6Z" fill="#FAFAFA"/>
<path d="M273.64 182.56C274.168 182.719 274.665 182.966 275.11 183.29C276.365 184.165 277.277 185.448 277.69 186.92C278.003 188.013 278.034 189.168 277.78 190.276C277.527 191.385 276.997 192.411 276.24 193.26C275.806 193.753 275.3 194.177 274.74 194.52C274.16 194.885 273.525 195.155 272.86 195.32C271.455 195.687 269.969 195.593 268.621 195.053C267.273 194.513 266.134 193.555 265.37 192.32C264.665 191.171 264.317 189.838 264.37 188.49C264.418 187.274 264.791 186.093 265.45 185.07C266.148 183.983 267.145 183.122 268.321 182.59C269.498 182.057 270.803 181.877 272.08 182.07C272.627 182.146 273.157 182.311 273.65 182.56C273.127 182.416 272.596 182.302 272.06 182.22C270.59 182.045 269.104 182.369 267.84 183.14C266.912 183.7 266.14 184.484 265.595 185.421C265.05 186.358 264.749 187.417 264.72 188.5C264.688 189.779 265.036 191.039 265.72 192.12C266.624 193.565 268.061 194.595 269.72 194.987C271.379 195.378 273.126 195.099 274.58 194.21C275.112 193.882 275.591 193.474 276 193C276.722 192.199 277.232 191.231 277.485 190.184C277.739 189.136 277.726 188.042 277.45 187C277.071 185.57 276.222 184.31 275.04 183.42C274.589 183.109 274.121 182.822 273.64 182.56V182.56Z" fill="#FAFAFA"/>
<path d="M280 176.4C279.989 176.32 279.989 176.24 280 176.16C280 175.99 280.06 175.76 280.1 175.46C280.19 174.82 280.33 173.9 280.51 172.7V172.76L274.75 170.49H274.87L272.75 173.58V173.63H272.68C271.35 173.477 270.005 173.497 268.68 173.69H268.61L268.56 173.63C267.88 172.69 267.14 171.63 266.36 170.63H266.53L260.84 173.07L260.93 172.91L261.61 176.59V176.68L261.53 176.74C260.473 177.561 259.535 178.523 258.74 179.6L258.68 179.68H258.58L254.89 179.09L255.08 178.99C254.35 180.79 253.57 182.74 252.78 184.73L252.71 184.52L255.79 186.65L255.88 186.71V186.82C255.699 188.147 255.699 189.493 255.88 190.82V190.93L255.79 191L252.79 193.19L252.85 192.97C253.62 194.77 254.45 196.7 255.28 198.66L255.07 198.55L258.75 197.87H258.87L258.94 197.96C259.759 199.012 260.714 199.95 261.78 200.75V200.75C261.78 200.83 261.71 200.57 261.86 200.94V201V201.11V201.35L261.79 201.81L261.64 202.74C261.54 203.35 261.44 203.97 261.35 204.58L261.23 204.37L266.97 206.68L266.75 206.75L268.87 203.67L268.94 203.58H269.05C270.377 203.761 271.723 203.761 273.05 203.58H273.16L273.22 203.67L275.41 206.67L275.19 206.61L280.89 204.19L280.78 204.38C280.56 203.13 280.34 201.9 280.12 200.7V200.59L280.2 200.53C281.253 199.709 282.194 198.754 283 197.69L283.06 197.61H283.15L286.85 198.21L286.67 198.31L288.99 192.57L289.05 192.74L286 190.58L285.94 190.53V190.45C286.116 189.122 286.116 187.777 285.94 186.45V186.38H286L289 184.2V184.33L286.6 178.63H286.69L283.01 179.28C282.396 178.476 281.702 177.736 280.94 177.07L280.37 176.58L280.18 176.42L280.39 176.55C280.52 176.65 280.72 176.8 280.98 177.02C281.761 177.674 282.474 178.404 283.11 179.2H283.05L286.72 178.5H286.79V178.56L289.24 184.25V184.33L289.16 184.38L286.16 186.58L286.21 186.46C286.411 187.808 286.431 189.177 286.27 190.53L286.21 190.41L289.29 192.52L289.39 192.59L289.34 192.7C288.62 194.52 287.86 196.42 287.05 198.45V198.56H286.93L283.23 197.98L283.39 197.91C282.574 199.005 281.615 199.987 280.54 200.83L280.6 200.67C280.82 201.87 281.05 203.1 281.28 204.34V204.48L281.16 204.54L275.47 206.97L275.33 207.03L275.25 206.91C274.53 205.91 273.79 204.91 273.05 203.91L273.23 203.99C271.873 204.17 270.497 204.17 269.14 203.99L269.32 203.91L267.2 206.99L267.11 207.12L266.97 207.06L261.23 204.75L261.09 204.7V204.55L261.39 202.71L261.53 201.78L261.61 201.32V201.08V200.88C261.76 201.24 261.61 200.98 261.69 201.06C260.6 200.236 259.622 199.275 258.78 198.2L258.96 198.27L255.28 198.94H255.13L255.07 198.8L252.65 193.1L252.59 192.97L252.71 192.88L255.71 190.69L255.64 190.87C255.456 189.513 255.456 188.137 255.64 186.78L255.71 186.95L252.64 184.82L252.52 184.74L252.58 184.61C253.38 182.61 254.16 180.67 254.89 178.87V178.75H255.03L258.72 179.35L258.56 179.41C259.378 178.316 260.34 177.337 261.42 176.5L261.36 176.65C261.13 175.37 260.9 174.11 260.69 172.97V172.85H260.8L266.5 170.43H266.6L266.66 170.52L268.85 173.52L268.73 173.47C270.077 173.29 271.443 173.29 272.79 173.47H272.69L274.83 170.4V170.34H274.9L280.63 172.68H280.68C280.48 173.87 280.32 174.78 280.21 175.42C280.15 175.72 280.11 175.95 280.08 176.12C280.05 176.29 280 176.39 280 176.4Z" fill="#FAFAFA"/>
<path d="M317.7 247.77H244.62V300.63H317.7V247.77Z" fill="#263238"/>
<path d="M284.33 247.77H220.62V300.63H284.33V247.77Z" fill="#455A64"/>
<path d="M220.62 247.77L209.31 236.46H237.97L248.61 247.77H220.62Z" fill="#455A64"/>
<path d="M284.32 247.77L297.33 236.46H333.02L317.7 247.77H284.32Z" fill="#455A64"/>
<path d="M284.32 247.77C284.32 247.91 270.06 248.03 252.47 248.03C234.88 248.03 220.62 247.91 220.62 247.77C220.62 247.63 234.87 247.51 252.47 247.51C270.07 247.51 284.32 247.62 284.32 247.77Z" fill="#263238"/>
<path d="M329.16 356.88H211.53C208.724 356.88 206.45 359.154 206.45 361.96V362.2C206.45 365.006 208.724 367.28 211.53 367.28H329.16C331.966 367.28 334.24 365.006 334.24 362.2V361.96C334.24 359.154 331.966 356.88 329.16 356.88Z" fill="#E0E0E0"/>
<path d="M269.17 356.88H211.53C208.724 356.88 206.45 359.154 206.45 361.96V362.2C206.45 365.006 208.724 367.28 211.53 367.28H269.17C271.976 367.28 274.25 365.006 274.25 362.2V361.96C274.25 359.154 271.976 356.88 269.17 356.88Z" fill="#FFB92D"/>
<path d="M261.9 392.84C261.9 394.97 260.42 396.63 257.36 396.63C255.709 396.688 254.099 396.112 252.86 395.02L253.49 394.02C254.534 394.99 255.916 395.51 257.34 395.47C259.47 395.47 260.59 394.47 260.59 392.91C260.59 391.35 259.59 390.3 256.41 390.3H253.74L254.38 384.02H261.24V385.16H255.51L255.08 389.16H256.69C260.47 389.13 261.9 390.62 261.9 392.84Z" fill="#FFB92D"/>
<path d="M271.94 392.84C271.94 394.97 270.46 396.63 267.4 396.63C265.749 396.688 264.139 396.112 262.9 395.02L263.53 394.02C264.574 394.99 265.956 395.51 267.38 395.47C269.51 395.47 270.63 394.47 270.63 392.91C270.63 391.35 269.63 390.3 266.45 390.3H263.78L264.42 384.02H271.28V385.16H265.55L265.12 389.16H266.73C270.51 389.13 271.94 390.62 271.94 392.84Z" fill="#FFB92D"/>
<path d="M273.21 387.31C273.21 385.31 274.36 383.91 276.04 383.91C277.72 383.91 278.87 385.25 278.87 387.31C278.87 389.37 277.7 390.71 276.04 390.71C274.38 390.71 273.21 389.35 273.21 387.31ZM277.97 387.31C277.97 385.68 277.2 384.71 276.04 384.71C274.88 384.71 274.11 385.71 274.11 387.31C274.11 388.91 274.86 389.9 276.04 389.9C277.22 389.9 278 388.94 278 387.31H277.97ZM283.63 384H284.68L276.13 396.53H275.07L283.63 384ZM280.89 393.22C280.89 391.22 282.05 389.81 283.72 389.81C285.39 389.81 286.54 391.18 286.54 393.22C286.54 395.26 285.4 396.62 283.72 396.62C282.04 396.62 280.89 395.26 280.89 393.22ZM285.65 393.22C285.65 391.6 284.9 390.62 283.72 390.62C282.54 390.62 281.78 391.62 281.78 393.22C281.78 394.82 282.55 395.81 283.72 395.81C284.89 395.81 285.65 394.83 285.65 393.22Z" fill="#FFB92D"/>
<path d="M485.2 445.58C485.2 445.72 379.89 445.84 250.01 445.84C120.13 445.84 14.8 445.72 14.8 445.58C14.8 445.44 120.09 445.32 250.01 445.32C379.93 445.32 485.2 445.43 485.2 445.58Z" fill="#263238"/>
<path d="M198.36 434.16L201.24 445.16L233.43 444.87C233.43 444.87 229.02 441.54 212.85 441.78L211.28 434.16H198.36Z" fill="#FFBE9D"/>
<path d="M163.27 309.9L139.12 312.18L129.31 315C125.118 316.19 121.282 318.391 118.14 321.41L86.53 351.69L80.76 304.56L65 305.94L67.64 366.6C68.8028 370.252 71.0971 373.439 74.1909 375.7C77.2847 377.962 81.0177 379.18 84.85 379.18C89.5805 379.123 94.1128 377.272 97.53 374L120 352.79L117.77 380.71L110.03 398.06L165.28 429.26C165.28 429.26 171.77 397.14 175.28 374.92C178.1 356.92 179.53 317.79 179.53 317.79L163.27 309.9Z" fill="#FFB92D"/>
<path d="M178.11 317.23C178.11 317.23 190.32 321.76 193.28 331.33C195.9 339.81 204.64 387.53 204.64 387.53L213.31 438L195.15 438.69L174.24 352.63L178.11 317.23Z" fill="#FFB92D"/>
<path d="M117.35 379.47C117.2 379.47 118.01 369.79 119.15 357.88C120.29 345.97 121.34 336.33 121.48 336.34C121.62 336.35 120.81 346.02 119.67 357.93C118.53 369.84 117.49 379.49 117.35 379.47Z" fill="#263238"/>
<path d="M157.56 355.74C157.528 355.903 157.474 356.061 157.4 356.21L156.85 357.52C156.553 358.204 156.219 358.872 155.85 359.52C155.43 360.3 155 361.21 154.39 362.14C154.1 362.61 153.79 363.14 153.48 363.62C153.17 364.1 152.77 364.62 152.4 365.17C151.67 366.25 150.77 367.32 149.84 368.46C145.712 373.339 140.671 377.364 135 380.31C133.68 380.96 132.44 381.6 131.22 382.06C130.61 382.3 130.04 382.56 129.47 382.76L127.81 383.31C126.81 383.69 125.81 383.91 124.94 384.14C124.213 384.342 123.475 384.502 122.73 384.62L121.33 384.86C121.167 384.901 120.998 384.918 120.83 384.91C120.982 384.837 121.143 384.786 121.31 384.76L122.69 384.43C123.29 384.3 124.03 384.12 124.86 383.86C125.69 383.6 126.67 383.37 127.7 382.97L129.32 382.38C129.89 382.18 130.45 381.91 131.05 381.66C132.26 381.18 133.48 380.54 134.78 379.89C137.56 378.397 140.207 376.667 142.69 374.72C145.145 372.738 147.43 370.554 149.52 368.19C150.44 367.07 151.35 366.02 152.09 364.95C152.46 364.43 152.85 363.95 153.18 363.44L154.12 361.98C154.74 361.07 155.19 360.18 155.63 359.42C155.997 358.771 156.331 358.103 156.63 357.42L157.27 356.15C157.46 355.88 157.54 355.73 157.56 355.74Z" fill="#263238"/>
<g opacity="0.2">
<path opacity="0.2" d="M123.76 384.37C122.905 384.037 122.204 383.398 121.792 382.578C121.38 381.758 121.287 380.815 121.53 379.93C121.812 379.056 122.279 378.253 122.901 377.576C123.522 376.899 124.283 376.365 125.13 376.01C126.823 375.304 128.586 374.781 130.39 374.45C138.155 372.538 145.254 368.553 150.93 362.92C151.46 362.4 152.2 361.83 152.85 362.18C153.72 362.66 153.17 363.98 152.53 364.74C144.709 373.825 134.574 380.622 123.2 384.41" fill="black"/>
</g>
<path d="M178.92 373C178.76 372.681 178.636 372.346 178.55 372C178.35 371.33 178.07 370.35 177.75 369.14C177.09 366.73 176.25 363.37 175.42 359.65C174.59 355.93 173.9 352.53 173.42 350.07C173.2 348.83 173.03 347.84 172.93 347.14C172.848 346.786 172.814 346.423 172.83 346.06C172.968 346.381 173.069 346.716 173.13 347.06C173.31 347.86 173.53 348.82 173.79 349.95C174.35 352.52 175.08 355.83 175.89 359.49C176.7 363.15 177.49 366.49 178.07 369.01C178.33 370.15 178.54 371.11 178.72 371.91C178.835 372.263 178.902 372.629 178.92 373Z" fill="#263238"/>
<path d="M67.7599 310.47C67.4435 309.717 67.2869 308.907 67.2999 308.09C67.145 307.285 67.1654 306.456 67.3599 305.66C67.6763 306.413 67.833 307.223 67.8199 308.04C67.9749 308.845 67.9544 309.674 67.7599 310.47V310.47Z" fill="#263238"/>
<path d="M72.38 310.61C72.0879 309.8 71.9554 308.941 71.99 308.08C71.8646 307.226 71.9087 306.357 72.12 305.52C72.4234 306.327 72.5562 307.189 72.51 308.05C72.6472 308.903 72.6029 309.775 72.38 310.61V310.61Z" fill="#263238"/>
<path d="M77 310.32C76.6892 309.413 76.5469 308.458 76.58 307.5C76.4431 306.548 76.4769 305.58 76.68 304.64C76.9843 305.552 77.1265 306.509 77.1 307.47C77.2376 308.418 77.2037 309.384 77 310.32V310.32Z" fill="#263238"/>
<path d="M85.86 358.93C85.738 357.538 85.7951 356.137 86.03 354.76C86.0852 353.364 86.3136 351.98 86.71 350.64C86.832 352.032 86.7749 353.433 86.54 354.81C86.4848 356.206 86.2564 357.59 85.86 358.93V358.93Z" fill="#263238"/>
<path d="M198.14 433.46C198.533 434.251 198.771 435.11 198.84 435.99C199.068 436.843 199.132 437.732 199.03 438.61C198.383 436.972 198.08 435.219 198.14 433.46V433.46Z" fill="#263238"/>
<path d="M204.11 433.45C204.484 434.163 204.702 434.947 204.75 435.75C204.971 436.524 205.016 437.337 204.88 438.13C204.506 437.417 204.288 436.633 204.24 435.83C204.024 435.056 203.98 434.243 204.11 433.45V433.45Z" fill="#263238"/>
<path d="M209.77 432.88C210.101 433.708 210.303 434.581 210.37 435.47C210.606 436.332 210.7 437.227 210.65 438.12C210.198 437.336 209.925 436.462 209.85 435.56C209.621 434.684 209.594 433.768 209.77 432.88V432.88Z" fill="#263238"/>
<path d="M187.91 323.11C187.91 323.21 186.64 323.11 184.67 323.54C182.103 324.061 179.716 325.242 177.743 326.965C175.771 328.689 174.281 330.896 173.42 333.37C172.75 335.26 172.65 336.53 172.55 336.51C172.5 336.216 172.5 335.915 172.55 335.62C172.641 334.816 172.809 334.022 173.05 333.25C173.843 330.662 175.344 328.348 177.383 326.568C179.422 324.789 181.919 323.615 184.59 323.18C185.386 323.045 186.193 322.985 187 323C187.307 322.985 187.615 323.023 187.91 323.11Z" fill="#263238"/>
<path d="M195.38 343.64C194.418 344.151 193.414 344.579 192.38 344.92C190.5 345.63 187.86 346.56 184.92 347.47C181.98 348.38 179.28 349.13 177.32 349.62C176.276 349.937 175.205 350.158 174.12 350.28C175.132 349.873 176.171 349.539 177.23 349.28L184.76 347L192.26 344.59C193.276 344.199 194.318 343.881 195.38 343.64V343.64Z" fill="#FAFAFA"/>
<path d="M203.08 378.45C202.061 378.815 201.014 379.099 199.95 379.3C198 379.76 195.3 380.36 192.32 380.99C189.34 381.62 186.62 382.16 184.65 382.53C183.598 382.775 182.528 382.936 181.45 383.01C182.466 382.649 183.51 382.368 184.57 382.17C186.57 381.71 189.22 381.11 192.21 380.48C195.2 379.85 197.91 379.3 199.87 378.94C200.925 378.689 201.998 378.525 203.08 378.45V378.45Z" fill="#FAFAFA"/>
<path d="M211.81 422C210.816 422.134 209.812 422.184 208.81 422.15C206.96 422.2 204.4 422.28 201.59 422.44C198.78 422.6 196.22 422.82 194.38 422.99C193.386 423.125 192.383 423.188 191.38 423.18C192.359 422.893 193.364 422.705 194.38 422.62C196.21 422.36 198.77 422.09 201.6 421.92C204.43 421.75 206.99 421.74 208.85 421.79C209.841 421.761 210.833 421.832 211.81 422V422Z" fill="#FAFAFA"/>
<path d="M131.66 381.06C130.941 380.837 130.247 380.538 129.59 380.17L124.69 377.83L119.78 375.52C119.084 375.25 118.414 374.915 117.78 374.52C118.524 374.664 119.246 374.903 119.93 375.23C121.22 375.74 122.99 376.5 124.93 377.41C126.87 378.32 128.55 379.21 129.77 379.9C130.445 380.207 131.08 380.597 131.66 381.06V381.06Z" fill="#FAFAFA"/>
<path d="M171.91 387.89C171.502 387.783 171.106 387.632 170.73 387.44L167.58 386.07C164.93 384.91 161.25 383.33 157.15 381.69C153.05 380.05 149.29 378.69 146.57 377.69L143.35 376.51C142.944 376.387 142.552 376.223 142.18 376.02C142.601 376.068 143.014 376.169 143.41 376.32C144.19 376.54 145.31 376.89 146.69 377.32C149.45 378.22 153.23 379.56 157.34 381.2C161.45 382.84 165.12 384.48 167.73 385.73C169.04 386.36 170.1 386.88 170.81 387.25C171.199 387.422 171.568 387.637 171.91 387.89V387.89Z" fill="#FAFAFA"/>
<path d="M175 359.47C174.812 359.478 174.624 359.461 174.44 359.42L172.84 359.18L166.98 358.23C161.98 357.43 155.19 356.33 147.62 355.23C140.05 354.13 133.18 353.23 128.2 352.54L122.32 351.76L120.72 351.53C120.529 351.515 120.341 351.474 120.16 351.41C120.35 351.395 120.54 351.395 120.73 351.41L122.34 351.55C123.74 351.67 125.76 351.88 128.25 352.16C133.25 352.72 140.11 353.59 147.69 354.7C155.27 355.81 162.1 356.97 167.04 357.87C169.51 358.32 171.5 358.7 172.88 358.98L174.46 359.32C174.646 359.343 174.828 359.394 175 359.47V359.47Z" fill="#FAFAFA"/>
<path d="M172.78 329.46C172.78 329.6 161.94 328.1 148.61 326.11C135.28 324.12 124.5 322.39 124.52 322.25C124.54 322.11 135.36 323.61 148.69 325.6C162.02 327.59 172.8 329.32 172.78 329.46Z" fill="#FAFAFA"/>
<path d="M116.1 355.71C115.514 354.663 114.999 353.577 114.56 352.46L111.05 344.54C109.67 341.54 108.43 338.81 107.45 336.66C106.908 335.592 106.437 334.49 106.04 333.36C106.255 333.605 106.43 333.881 106.56 334.18C106.86 334.72 107.28 335.51 107.79 336.5C108.79 338.5 110.13 341.24 111.52 344.33C112.91 347.42 114.09 350.25 114.9 352.33C115.31 353.33 115.62 354.2 115.83 354.79C115.958 355.084 116.049 355.393 116.1 355.71V355.71Z" fill="#FAFAFA"/>
<path d="M94.56 376.79C94.42 376.79 93.04 370.79 91.48 363.3C89.92 355.81 88.77 349.74 88.91 349.71C89.05 349.68 90.43 355.71 91.99 363.19C93.55 370.67 94.7 376.76 94.56 376.79Z" fill="#FAFAFA"/>
<path d="M85.6499 344C82.5703 344.927 79.4423 345.685 76.2799 346.27C73.1534 347.017 69.9888 347.594 66.7999 348C69.8801 347.072 73.008 346.311 76.1699 345.72C79.2972 344.979 82.4617 344.405 85.6499 344V344Z" fill="#FAFAFA"/>
<path d="M82.52 316.63C81.7188 316.9 80.8905 317.081 80.05 317.17C78.52 317.43 76.39 317.74 74.05 318.01C71.71 318.28 69.55 318.45 67.99 318.54C67.1524 318.63 66.3076 318.63 65.47 318.54C66.2854 318.33 67.1193 318.199 67.96 318.15L73.96 317.46L79.96 316.78C80.8063 316.646 81.6638 316.596 82.52 316.63V316.63Z" fill="#FAFAFA"/>
<path d="M90.6499 269.13C90.9299 269.69 98.4399 308.29 98.4399 308.29L80.7399 309.12L73.8799 275.93L90.6499 269.13Z" fill="#455A64"/>
<path d="M98.4399 308.29L100.47 307.44L92.8099 269.39L90.4099 269.23L98.4399 308.29Z" fill="#263238"/>
<path d="M83.5299 277.57C83.553 277.752 83.5213 277.936 83.4389 278.1C83.3565 278.263 83.2271 278.399 83.0673 278.488C82.9076 278.578 82.7247 278.618 82.5421 278.603C82.3595 278.588 82.1856 278.519 82.0425 278.404C81.8995 278.29 81.7939 278.135 81.7392 277.96C81.6845 277.786 81.6833 277.598 81.7356 277.423C81.788 277.247 81.8916 277.091 82.0331 276.975C82.1746 276.859 82.3476 276.787 82.5299 276.77C82.7679 276.747 83.0053 276.818 83.192 276.967C83.3786 277.117 83.4998 277.333 83.5299 277.57V277.57Z" fill="#263238"/>
<path d="M79.88 304.66L79.61 299.61L87.18 296.49L84.18 289.49C83.8397 288.717 83.343 288.024 82.7212 287.453C82.0995 286.882 81.3662 286.446 80.5676 286.173C79.7689 285.899 78.9223 285.794 78.0811 285.864C77.2399 285.934 76.4223 286.178 75.68 286.58L72.68 288.23C71.6093 288.807 70.6722 289.603 69.9296 290.566C69.187 291.529 68.6556 292.638 68.37 293.82C67.5535 297.9 66.9693 302.024 66.62 306.17" fill="#FFBE9D"/>
<path d="M59.63 433.35C59.63 433.35 28.51 441.96 27.26 442.35C25.39 443.01 25.7 449.88 28.62 449.77C30 449.72 52.52 450.61 55.37 450.43C58.22 450.25 66.8 446.87 66.8 446.87L59.63 433.35Z" fill="#FFB92D"/>
<path d="M46.67 445.22C46.2781 444.081 45.8206 442.966 45.3 441.88C44.6274 440.875 43.8926 439.913 43.1 439C44.2049 439.608 45.1219 440.508 45.7513 441.601C46.3807 442.694 46.6984 443.939 46.67 445.2V445.22Z" fill="#263238"/>
<path d="M49.91 443.75C49.76 443.75 49.44 442.31 48.61 440.68C47.78 439.05 46.8099 437.92 46.9199 437.81C47.8261 438.519 48.5648 439.418 49.0833 440.445C49.6019 441.472 49.8875 442.6 49.9199 443.75H49.91Z" fill="#263238"/>
<path d="M53 442.94C52.8543 441.825 52.6134 440.724 52.28 439.65C51.7951 438.634 51.2265 437.661 50.58 436.74C51.5667 437.404 52.3271 438.354 52.7596 439.462C53.1921 440.569 53.2759 441.783 53 442.94V442.94Z" fill="#263238"/>
<path d="M52.3999 438.92C52.1299 438.178 52.0175 437.388 52.0699 436.6C52.0718 435.744 52.1758 434.891 52.3799 434.06C52.5033 433.57 52.6603 433.089 52.8499 432.62C52.9416 432.327 53.111 432.064 53.3399 431.86C53.4954 431.741 53.6882 431.68 53.8841 431.689C54.0799 431.698 54.2662 431.777 54.4099 431.91C54.6531 432.142 54.8026 432.455 54.8299 432.79C54.8494 433.063 54.8494 433.337 54.8299 433.61C54.8197 434.125 54.756 434.638 54.6399 435.14C54.421 435.974 54.0843 436.772 53.6399 437.51C53.2952 438.219 52.8203 438.857 52.2399 439.39C52.1699 439.34 52.6899 438.61 53.3099 437.34C53.6785 436.607 53.9539 435.831 54.1299 435.03C54.2264 434.563 54.2766 434.087 54.2799 433.61C54.2799 433.13 54.2799 432.53 53.9899 432.3C53.9343 432.248 53.8611 432.219 53.7849 432.219C53.7088 432.219 53.6355 432.248 53.5799 432.3C53.4232 432.449 53.3062 432.634 53.2399 432.84C53.0551 433.29 52.8981 433.751 52.7699 434.22C52.5459 435.013 52.4085 435.828 52.3599 436.65C52.3499 438 52.4899 438.9 52.3999 438.92Z" fill="#263238"/>
<path d="M52.4399 438.6C53.0727 438.339 53.7575 438.23 54.4399 438.28C55.185 438.277 55.9275 438.368 56.6499 438.55C57.0932 438.646 57.5208 438.804 57.9199 439.02C58.1756 439.148 58.3823 439.356 58.5087 439.612C58.6351 439.869 58.6742 440.159 58.6199 440.44C58.5496 440.708 58.4086 440.953 58.2116 441.148C58.0146 441.343 57.7689 441.482 57.4999 441.55C57.041 441.67 56.5589 441.67 56.0999 441.55C54.7157 441.143 53.5013 440.297 52.6399 439.14C53.218 439.47 53.7696 439.845 54.2899 440.26C54.8701 440.652 55.5176 440.933 56.1999 441.09C56.5813 441.18 56.9785 441.18 57.3599 441.09C57.5414 441.049 57.7078 440.957 57.8403 440.827C57.9728 440.696 58.0662 440.531 58.1099 440.35C58.1412 440.174 58.1129 439.994 58.0295 439.836C57.9462 439.678 57.8126 439.553 57.6499 439.48C57.2933 439.286 56.9136 439.138 56.5199 439.04C55.837 438.849 55.137 438.725 54.4299 438.67C53.2199 438.56 52.4499 438.68 52.4399 438.6Z" fill="#263238"/>
<path d="M41.89 445.56C41.7582 444.608 41.5508 443.669 41.27 442.75C40.8328 441.895 40.3243 441.079 39.75 440.31C40.656 440.806 41.3636 441.598 41.7534 442.555C42.1432 443.511 42.1914 444.572 41.89 445.56V445.56Z" fill="#263238"/>
<path d="M63.6 447C63.2168 447.23 62.8115 447.421 62.39 447.57C61.2614 448.002 60.1056 448.36 58.93 448.64C55.0303 449.496 51.0411 449.876 47.05 449.77C42.39 449.72 38.19 449.5 35.14 449.38L31.53 449.19C31.0863 449.188 30.644 449.142 30.21 449.05C30.6496 448.979 31.0958 448.959 31.54 448.99H35.15L47.05 449.23C51.0077 449.318 54.9635 448.983 58.85 448.23C61.82 447.66 63.56 446.9 63.6 447Z" fill="#263238"/>
<path d="M64.5199 447.7C64.5199 447.77 63.6199 447.28 62.1899 446.65C60.359 445.772 58.3182 445.425 56.2999 445.65C54.3228 446.071 52.5363 447.124 51.2099 448.65C50.6554 449.303 50.0574 449.918 49.4199 450.49C49.8277 449.727 50.3393 449.023 50.9399 448.4C51.5544 447.696 52.2453 447.062 52.9999 446.51C53.9493 445.806 55.0534 445.34 56.2199 445.15C58.3306 444.9 60.4672 445.305 62.3399 446.31C63.1345 446.657 63.87 447.126 64.5199 447.7Z" fill="#263238"/>
<path d="M92.6599 424.76C92.6599 424.76 122.1 444.04 123.16 444.84C124.74 446.03 122.93 451.74 120.16 450.75C118.86 450.28 94.1599 443.41 91.4899 442.38C88.8199 441.35 81.6899 435.51 81.6899 435.51L92.6599 424.76Z" fill="#FFB92D"/>
<path d="M101.4 440C101.758 438.789 102.44 437.7 103.372 436.849C104.305 435.997 105.452 435.417 106.69 435.17C105.648 435.794 104.646 436.482 103.69 437.23C102.869 438.104 102.104 439.029 101.4 440V440Z" fill="#263238"/>
<path d="M98.76 437.62C99.0522 436.496 99.6759 435.485 100.55 434.72C101.305 433.84 102.298 433.197 103.41 432.87C103.49 433.01 102.2 433.78 100.93 435.09C99.66 436.4 98.89 437.69 98.76 437.62Z" fill="#263238"/>
<path d="M96.11 435.92C96.1962 434.733 96.644 433.601 97.3932 432.677C98.1423 431.753 99.1568 431.08 100.3 430.75C99.4073 431.431 98.5712 432.184 97.8 433C97.1588 433.926 96.5936 434.903 96.11 435.92V435.92Z" fill="#263238"/>
<path d="M97.8499 432.26C97.7799 432.26 98.1799 431.42 98.5199 430.05C98.7179 429.25 98.8352 428.433 98.8699 427.61C98.8993 427.127 98.8993 426.643 98.8699 426.16C98.8722 425.943 98.817 425.729 98.7099 425.54C98.6671 425.477 98.6019 425.433 98.5277 425.416C98.4534 425.399 98.3755 425.411 98.3099 425.45C97.9699 425.58 97.7999 426.16 97.6399 426.61C97.4965 427.066 97.3993 427.535 97.3499 428.01C97.2778 428.827 97.3046 429.65 97.4299 430.46C97.6299 431.86 97.9099 432.71 97.8299 432.73C97.4332 432.05 97.1718 431.299 97.0599 430.52C96.8819 429.679 96.818 428.818 96.8699 427.96C96.9134 427.449 97.0072 426.943 97.1499 426.45C97.2299 426.2 97.3299 425.95 97.4399 425.68C97.5691 425.373 97.8029 425.121 98.0999 424.97C98.2738 424.898 98.467 424.886 98.6483 424.937C98.8297 424.988 98.9887 425.098 99.0999 425.25C99.2573 425.513 99.3402 425.814 99.3399 426.12C99.3799 426.626 99.3799 427.134 99.3399 427.64C99.2869 428.493 99.1291 429.336 98.8699 430.15C98.6866 430.919 98.3386 431.639 97.8499 432.26V432.26Z" fill="#263238"/>
<path d="M97.9099 431.94C97.9099 432.02 97.1799 431.67 95.9999 431.38C95.3076 431.215 94.601 431.118 93.8899 431.09C93.4848 431.066 93.0783 431.093 92.6799 431.17C92.5031 431.191 92.3382 431.27 92.2114 431.395C92.0847 431.52 92.0032 431.684 91.9799 431.86C91.9727 432.044 92.0141 432.228 92.1002 432.391C92.1862 432.554 92.3137 432.692 92.4699 432.79C92.8028 432.997 93.1795 433.124 93.5699 433.16C94.267 433.224 94.9699 433.153 95.6399 432.95C96.265 432.713 96.9068 432.523 97.5599 432.38C97.0208 432.799 96.4064 433.112 95.7499 433.3C95.0395 433.571 94.2784 433.684 93.5199 433.63C93.0479 433.606 92.59 433.462 92.1899 433.21C91.9548 433.065 91.7629 432.86 91.6345 432.615C91.506 432.371 91.4457 432.096 91.4599 431.82C91.4932 431.535 91.6186 431.268 91.8171 431.061C92.0156 430.853 92.2764 430.716 92.5599 430.67C93.0054 430.592 93.4592 430.572 93.9099 430.61C94.6544 430.659 95.39 430.8 96.0999 431.03C96.7653 431.19 97.3848 431.501 97.9099 431.94V431.94Z" fill="#263238"/>
<path d="M116.43 449.68C116.43 449.68 115.93 449.38 115.71 448.53C115.47 447.436 115.667 446.291 116.26 445.34C116.559 444.828 116.893 444.337 117.26 443.87C117.544 443.47 117.88 443.11 118.26 442.8C118.526 442.576 118.854 442.436 119.2 442.4C119.45 442.4 119.58 442.45 119.57 442.48C119.173 442.597 118.807 442.802 118.5 443.08C118.182 443.408 117.898 443.766 117.65 444.15C117.35 444.59 117.02 445.07 116.73 445.59C116.206 446.45 115.98 447.459 116.09 448.46C116.183 448.872 116.296 449.279 116.43 449.68V449.68Z" fill="#263238"/>
<path d="M105.86 441.78C105.867 440.748 106.232 439.751 106.892 438.957C107.552 438.164 108.467 437.624 109.48 437.43C109.54 437.58 108.3 438.06 107.29 439.29C106.742 440.077 106.263 440.91 105.86 441.78V441.78Z" fill="#263238"/>
<path d="M84.73 436.55C85.1865 436.811 85.6212 437.109 86.03 437.44C87.1947 438.252 88.4069 438.993 89.66 439.66C91.5207 440.644 93.445 441.502 95.42 442.23C97.65 443.06 100.15 443.85 102.8 444.61C108.1 446.14 112.89 447.53 116.35 448.61L120.44 449.87C120.949 450 121.445 450.177 121.92 450.4C121.402 450.327 120.89 450.213 120.39 450.06L116.25 448.97C112.76 448.02 107.96 446.68 102.65 445.15C100 444.39 97.49 443.58 95.25 442.72C93.2642 441.952 91.3359 441.043 89.48 440C88.2307 439.296 87.0372 438.497 85.91 437.61C85.4815 437.298 85.0861 436.943 84.73 436.55V436.55Z" fill="#263238"/>
<path d="M83.6399 437C84.4334 436.648 85.2768 436.422 86.1399 436.33C88.2322 435.94 90.3941 436.205 92.3299 437.09C93.3836 437.607 94.2988 438.368 94.9999 439.31C95.5548 440.077 96.018 440.906 96.3799 441.78C96.7647 442.555 97.0406 443.379 97.1999 444.23C96.7527 443.492 96.352 442.727 95.9999 441.94C95.2114 440.072 93.8304 438.515 92.0699 437.51C90.22 436.673 88.1716 436.375 86.1599 436.65C84.6199 436.81 83.6599 437 83.6399 437Z" fill="#263238"/>
<path d="M161.66 272L163.58 310.89C163.66 312.46 163.42 314.029 162.874 315.503C162.328 316.977 161.488 318.324 160.404 319.462C159.321 320.601 158.017 321.507 156.572 322.126C155.127 322.744 153.572 323.062 152 323.06V323.06C149.028 323.061 146.17 321.92 144.016 319.872C141.863 317.825 140.579 315.028 140.43 312.06C140.29 309.13 140.17 306.69 140.13 306.39C140.13 306.39 130.19 305.94 128.99 296.18C128.41 291.46 127.99 281.65 127.74 272.76C127.605 268.153 129.21 263.663 132.236 260.187C135.263 256.71 139.488 254.501 144.07 254L145.01 253.9C155.25 253.37 161.42 261.77 161.66 272Z" fill="#FFBE9D"/>
<path d="M140.11 306.23C144.632 305.825 148.931 304.085 152.46 301.23C152.46 301.23 150.22 308.6 140.37 308.79L140.11 306.23Z" fill="#EB996E"/>
<path d="M130.86 278.85C130.898 279.213 131.076 279.548 131.355 279.783C131.635 280.018 131.995 280.135 132.36 280.11C132.539 280.105 132.716 280.064 132.879 279.989C133.043 279.915 133.189 279.808 133.311 279.675C133.432 279.543 133.525 279.387 133.585 279.218C133.645 279.049 133.671 278.869 133.66 278.69C133.627 278.325 133.451 277.987 133.17 277.751C132.889 277.515 132.526 277.399 132.16 277.43C131.981 277.436 131.805 277.478 131.642 277.553C131.479 277.629 131.333 277.735 131.212 277.868C131.091 278 130.998 278.155 130.937 278.323C130.877 278.492 130.85 278.671 130.86 278.85V278.85Z" fill="#263238"/>
<path d="M130.38 277.31C130.58 277.47 131.55 276.57 133.05 276.41C134.55 276.25 135.74 276.88 135.88 276.68C136.02 276.48 135.74 276.28 135.22 275.98C134.517 275.609 133.72 275.456 132.93 275.54C132.147 275.626 131.411 275.958 130.83 276.49C130.41 276.89 130.29 277.24 130.38 277.31Z" fill="#263238"/>
<path d="M145.61 277.58C145.648 277.945 145.827 278.281 146.109 278.517C146.391 278.752 146.754 278.868 147.12 278.84C147.299 278.834 147.475 278.792 147.638 278.717C147.8 278.641 147.947 278.535 148.068 278.403C148.189 278.27 148.282 278.115 148.343 277.947C148.403 277.778 148.429 277.599 148.42 277.42C148.384 277.056 148.207 276.72 147.927 276.484C147.647 276.248 147.285 276.132 146.92 276.16C146.74 276.165 146.563 276.206 146.399 276.281C146.235 276.355 146.088 276.462 145.966 276.594C145.844 276.726 145.749 276.882 145.688 277.051C145.627 277.22 145.601 277.4 145.61 277.58V277.58Z" fill="#263238"/>
<path d="M145.18 276C145.38 276.16 146.35 275.26 147.85 275.1C149.35 274.94 150.54 275.57 150.68 275.37C150.82 275.17 150.54 274.97 150.02 274.67C149.317 274.299 148.52 274.146 147.73 274.23C146.947 274.316 146.211 274.648 145.63 275.18C145.21 275.54 145.09 275.89 145.18 276Z" fill="#263238"/>
<path d="M141 287.7C140.18 287.546 139.344 287.488 138.51 287.53C138.12 287.53 137.75 287.53 137.66 287.25C137.585 286.856 137.63 286.448 137.79 286.08C138.05 285.08 138.32 284.08 138.6 283.03C139.72 278.7 140.48 275.15 140.31 275.11C140.14 275.07 139.08 278.54 137.97 282.88C137.7 283.94 137.45 284.96 137.2 285.94C137.024 286.431 137.024 286.969 137.2 287.46C137.271 287.589 137.37 287.701 137.489 287.787C137.608 287.874 137.745 287.933 137.89 287.96C138.113 287.985 138.337 287.985 138.56 287.96C139.381 287.982 140.202 287.894 141 287.7V287.7Z" fill="#263238"/>
<path d="M145.5 288.26C145.25 288.26 145.43 289.9 144.16 291.21C142.89 292.52 141.16 292.54 141.16 292.76C141.16 292.98 141.58 293.04 142.31 292.98C143.269 292.887 144.166 292.459 144.84 291.77C145.475 291.107 145.832 290.227 145.84 289.31C145.83 288.62 145.61 288.23 145.5 288.26Z" fill="#263238"/>
<path d="M144.15 270.12C144.34 270.51 145.82 270.12 147.6 270.17C149.38 270.22 150.87 270.51 151.06 270.12C151.15 269.93 150.86 269.57 150.24 269.24C149.419 268.839 148.518 268.63 147.605 268.63C146.692 268.63 145.79 268.839 144.97 269.24C144.35 269.57 144.06 269.93 144.15 270.12Z" fill="#263238"/>
<path d="M130.46 272.9C130.76 273.21 131.75 272.74 133 272.59C134.25 272.44 135.32 272.59 135.52 272.18C135.61 272 135.41 271.67 134.91 271.4C134.251 271.073 133.507 270.957 132.78 271.07C132.05 271.16 131.368 271.479 130.83 271.98C130.43 272.38 130.32 272.75 130.46 272.9Z" fill="#263238"/>
<path d="M161.66 279.35C161.82 279.26 168.16 276.62 168.66 283.35C169.16 290.08 162.34 289.2 162.32 289C162.3 288.8 161.66 279.35 161.66 279.35Z" fill="#FFBE9D"/>
<path d="M164.19 286.28C164.19 286.28 164.31 286.36 164.52 286.43C164.806 286.526 165.117 286.508 165.39 286.38C165.803 286.072 166.126 285.659 166.326 285.185C166.526 284.71 166.597 284.191 166.53 283.68C166.494 283.104 166.337 282.542 166.07 282.03C165.989 281.827 165.861 281.647 165.695 281.504C165.53 281.361 165.332 281.26 165.12 281.21C164.983 281.184 164.841 281.207 164.718 281.274C164.596 281.342 164.501 281.45 164.45 281.58C164.38 281.78 164.45 281.91 164.45 281.92C164.45 281.93 164.29 281.82 164.33 281.54C164.348 281.37 164.431 281.212 164.56 281.1C164.644 281.022 164.744 280.963 164.852 280.925C164.961 280.887 165.075 280.872 165.19 280.88C165.469 280.911 165.736 281.014 165.964 281.179C166.191 281.344 166.373 281.565 166.49 281.82C166.824 282.378 167.013 283.01 167.04 283.66C167.12 284.249 167.023 284.849 166.761 285.384C166.499 285.918 166.085 286.362 165.57 286.66C165.393 286.728 165.202 286.754 165.013 286.737C164.824 286.719 164.642 286.659 164.48 286.56C164.21 286.44 164.16 286.3 164.19 286.28Z" fill="#EB996E"/>
<path d="M165.35 278.71C164.717 278.744 164.104 278.948 163.576 279.299C163.049 279.651 162.625 280.138 162.35 280.71C162.02 281.71 162.04 282.81 161.71 283.81C161.38 284.81 160.5 285.81 159.45 285.66C159.092 285.586 158.76 285.42 158.486 285.178C158.212 284.936 158.007 284.626 157.89 284.28C157.666 283.587 157.581 282.856 157.64 282.13C157.64 278.97 158 275.8 157.78 272.64C157.68 269.452 156.636 266.365 154.78 263.77C153.843 262.488 152.577 261.484 151.116 260.862C149.655 260.241 148.053 260.026 146.48 260.24C144.42 260.63 142.63 261.93 140.6 262.44C139.395 262.736 138.139 262.753 136.926 262.492C135.713 262.23 134.576 261.696 133.6 260.93C133.157 260.65 132.699 260.393 132.23 260.16C132.176 259.413 132.339 258.666 132.7 258.01C136.38 253.77 143.64 251.9 149.2 252.67C152.025 253.041 154.736 254.023 157.143 255.548C159.551 257.073 161.597 259.104 163.14 261.5C166.02 266.31 166.14 273.44 165.39 278.71" fill="#263238"/>
<path d="M56.09 433C56.09 433 128.3 385.64 131.26 384.65C134.22 383.66 141.36 378.98 148.51 380.95C155.66 382.92 162.06 389.33 165.26 398.69C168.46 408.05 168.71 429 168.71 429C168.71 429 163 445.5 152 449C151.051 449.294 150.086 449.534 149.11 449.72C135.57 452.41 121.81 446.19 114.24 434.65L112.62 432.2C112.62 432.2 65.39 449.55 64.62 449.31L56.09 433Z" fill="#263238"/>
<path d="M31.4699 377.74C31.4699 377.74 22.6299 380.89 22.5999 390.8C22.5299 409.8 60.93 430.69 60.93 430.69L112 396.82V393.26C112 393.26 46.2499 369.61 31.4699 377.74Z" fill="#263238"/>
<path d="M145.43 420C145.43 420 145.3 420.07 145.03 420.18L143.85 420.65L139.27 422.41L122.27 428.82C115.04 431.51 106.38 434.72 96.67 438.25C86.96 441.78 76.2 445.66 64.67 449.55L64.46 449.62L64.36 449.43C62.55 445.98 60.65 442.35 58.72 438.65L55.84 433.16L55.73 432.95L55.93 432.82L111.01 397.82L127.56 387.38L132.05 384.58L133.22 383.86L133.63 383.63C133.508 383.726 133.381 383.817 133.25 383.9L132.11 384.66L127.66 387.54L111.2 398.12L56.2 433.22L56.29 432.88C57.21 434.62 58.18 436.49 59.17 438.37L64.81 449.15L64.5 449.02C75.99 445.14 86.75 441.28 96.5 437.78L122.13 428.45L139.2 422.19L143.8 420.52L145 420.09L145.43 420Z" fill="#455A64"/>
<path d="M86.1499 413.93C85.6862 413.658 85.2419 413.354 84.8199 413.02C83.9799 412.42 82.8199 411.51 81.3199 410.38C78.3999 408.12 74.4199 404.92 70.1299 401.24C65.8399 397.56 62.1299 394.11 59.3999 391.56C58.0599 390.28 56.9899 389.24 56.2599 388.5C55.8647 388.137 55.5001 387.743 55.1699 387.32C55.6024 387.625 56.0134 387.959 56.3999 388.32L59.6499 391.25C62.3899 393.73 66.1999 397.13 70.4699 400.8C74.7399 404.47 78.6899 407.72 81.5499 410.05L84.9399 412.82C85.3748 413.154 85.7796 413.526 86.1499 413.93V413.93Z" fill="#455A64"/>
<path d="M45.8999 384.83C47.5518 384.566 49.2434 384.721 50.8199 385.28C52.4474 385.673 53.9522 386.463 55.1999 387.58C55.1099 387.71 53.1999 386.53 50.6699 385.78C48.1399 385.03 45.8899 385 45.8999 384.83Z" fill="#455A64"/>
<path d="M50.3 381.84C51.5113 382.272 52.5593 383.069 53.3 384.12C54.1788 385.071 54.7353 386.275 54.89 387.56C54.74 387.61 54.18 386.02 52.89 384.45C51.6 382.88 50.22 382 50.3 381.84Z" fill="#455A64"/>
<path d="M28.6599 441.92C28.6599 441.86 29.2699 441.73 29.9699 442.32C30.8129 443.106 31.3394 444.173 31.4499 445.32C31.611 446.432 31.4514 447.566 30.9899 448.59C30.6199 449.37 30.2299 449.73 30.1799 449.7C30.1299 449.67 30.3899 449.22 30.6399 448.46C30.9752 447.473 31.0778 446.423 30.9399 445.39C30.8196 444.37 30.3984 443.409 29.7299 442.63C29.4195 442.33 29.0569 442.089 28.6599 441.92V441.92Z" fill="#263238"/>
<path d="M452.87 387.4H383.11V396.99H452.87V387.4Z" fill="#263238"/>
<path d="M453 397.1H383V387.28H453V397.1ZM383.24 396.86H452.76V387.52H383.23L383.24 396.86Z" fill="#263238"/>
<path d="M389.58 393.79L399.62 443.33H436.78L446.48 396.98L389.58 393.79Z" fill="#263238"/>
<path d="M389.58 438.64L394.94 446.01H440.1L446.48 438.64H389.58Z" fill="#455A64"/>
<path d="M415.37 395.24C415.24 395.24 415.06 372.29 414.98 343.99C414.9 315.69 414.98 292.73 415.09 292.73C415.2 292.73 415.4 315.67 415.48 343.98C415.56 372.29 415.51 395.24 415.37 395.24Z" fill="#263238"/>
<path d="M430.91 337.81C430.872 337.994 430.812 338.172 430.73 338.34C430.56 338.73 430.36 339.22 430.1 339.83C429.96 340.15 429.81 340.51 429.65 340.9L429.18 342.2C429.02 342.67 428.84 343.2 428.65 343.69C428.46 344.18 428.31 344.8 428.13 345.4C427.3 348.203 426.648 351.055 426.18 353.94C425.634 357.479 425.274 361.044 425.1 364.62C424.842 371.128 425.026 377.647 425.65 384.13C425.88 386.62 426.1 388.63 426.27 390.02C426.34 390.68 426.4 391.21 426.44 391.63C426.466 391.816 426.466 392.004 426.44 392.19C426.375 392.012 426.332 391.828 426.31 391.64C426.24 391.22 426.15 390.7 426.05 390.05C425.82 388.67 425.54 386.66 425.27 384.17C424.54 377.674 424.306 371.132 424.57 364.6C424.749 361.002 425.127 357.417 425.7 353.86C426.195 350.961 426.883 348.098 427.76 345.29C427.96 344.7 428.12 344.12 428.32 343.59L428.89 342.1L429.4 340.81C429.57 340.42 429.75 340.07 429.9 339.75L430.61 338.3C430.69 338.125 430.791 337.961 430.91 337.81V337.81Z" fill="#263238"/>
<path d="M429.13 319.25C429.079 319.506 429.005 319.757 428.91 320L428.18 322.14L427.65 323.67C427.48 324.25 427.29 324.87 427.09 325.53C426.68 326.86 426.21 328.36 425.79 330.06C425.56 330.91 425.33 331.79 425.09 332.72C424.85 333.65 424.66 334.62 424.43 335.62C423.95 337.62 423.59 339.79 423.14 342.05C422.38 346.61 421.7 351.65 421.23 356.96C420.76 362.27 420.6 367.37 420.53 371.96C420.46 376.55 420.58 380.75 420.77 384.24C420.83 385.99 420.94 387.57 421.03 388.96C421.12 390.35 421.2 391.54 421.29 392.52C421.38 393.5 421.41 394.2 421.46 394.76C421.484 395.023 421.484 395.287 421.46 395.55C421.394 395.295 421.354 395.033 421.34 394.77C421.27 394.22 421.18 393.47 421.07 392.53C420.96 391.59 420.84 390.37 420.73 388.98C420.62 387.59 420.48 385.98 420.39 384.26C420.16 380.77 420.06 376.59 420.05 371.96C420.04 367.33 420.27 362.23 420.72 356.89C421.17 351.55 421.88 346.51 422.67 341.94C423.14 339.67 423.5 337.5 424.01 335.5C424.25 334.5 424.47 333.5 424.69 332.59C424.91 331.68 425.19 330.79 425.43 329.94C425.87 328.24 426.37 326.74 426.8 325.41L427.4 323.57C427.61 323.01 427.81 322.51 427.98 322.04C428.32 321.16 428.59 320.46 428.8 319.94C428.888 319.7 428.999 319.469 429.13 319.25V319.25Z" fill="#263238"/>
<path d="M411 399.3C410.989 399.21 410.989 399.12 411 399.03C411 398.82 411 398.56 410.94 398.24C410.89 397.51 410.82 396.49 410.73 395.24C410.56 392.56 410.33 388.76 410.03 384.06C409.43 374.63 408.55 361.59 406.96 347.25C406.15 340.08 405.21 333.25 404.23 327.1C403.71 324.02 403.23 321.1 402.71 318.36C402.19 315.62 401.71 313.09 401.2 310.78C400.69 308.47 400.2 306.38 399.82 304.55C399.44 302.72 399.02 301.15 398.7 299.87C398.38 298.59 398.15 297.62 397.97 296.87C397.9 296.55 397.84 296.3 397.8 296.1C397.773 296.012 397.756 295.922 397.75 295.83C397.792 295.908 397.823 295.993 397.84 296.08C397.9 296.28 397.98 296.53 398.07 296.84C398.26 297.55 398.54 298.53 398.88 299.78C399.22 301.03 399.66 302.62 400.09 304.45C400.52 306.28 401.09 308.35 401.54 310.67C401.99 312.99 402.6 315.51 403.11 318.24C403.62 320.97 404.11 323.91 404.68 326.99C405.68 333.16 406.68 339.99 407.46 347.16C409.05 361.51 409.87 374.56 410.38 384C410.64 388.73 410.82 392.55 410.92 395.19C410.97 396.49 411.01 397.5 411.04 398.24C411.04 398.56 411.04 398.82 411.04 399.03C411.038 399.121 411.024 399.212 411 399.3V399.3Z" fill="#263238"/>
<path d="M414.81 303.76C414.5 300.51 411.22 298.06 407.95 298.02C404.68 297.98 401.64 299.95 399.65 302.53C397.767 305.21 396.409 308.224 395.65 311.41C393.45 319.07 392.25 327.11 393.19 335.03C394.13 342.95 397.34 350.73 403.02 356.32C403.94 357.23 405.13 358.14 406.4 357.87C407.08 357.661 407.696 357.283 408.19 356.77C413.748 351.678 418.154 345.458 421.111 338.524C424.069 331.591 425.511 324.106 425.34 316.57C425.26 313.57 424.86 310.43 423.19 307.92C421.52 305.41 417.64 302.75 414.81 303.76Z" fill="#FFB92D"/>
<path d="M390.42 277.72L385.82 286.05C385.72 286.24 385.58 286.46 385.35 286.48C385.12 286.5 384.93 286.27 384.8 286.07L372.64 267.41L375.44 265.82L390.42 277.72Z" fill="#FFB92D"/>
<g opacity="0.2">
<path opacity="0.2" d="M390.42 277.72L385.82 286.05C385.72 286.24 385.58 286.46 385.35 286.48C385.12 286.5 384.93 286.27 384.8 286.07L372.64 267.41L375.44 265.82L390.42 277.72Z" fill="black"/>
</g>
<path d="M415.09 292.73L373.61 268.25C373.163 268.054 372.806 267.697 372.61 267.25C372.45 266.64 372.91 266.05 373.35 265.59C376.202 262.633 379.657 260.324 383.481 258.821C387.305 257.318 391.407 256.656 395.51 256.88C399.605 257.18 403.566 258.472 407.05 260.645C410.534 262.817 413.438 265.805 415.51 269.35C419.51 276.5 419.65 285.96 415.06 292.75" fill="#FFB92D"/>
<path d="M379.59 260.44C379.766 260.393 379.948 260.369 380.13 260.37C380.49 260.37 381.02 260.29 381.7 260.3C383.627 260.268 385.552 260.419 387.45 260.75C393.776 261.827 399.669 264.67 404.45 268.95C409.168 273.275 412.58 278.835 414.3 285C414.805 286.863 415.139 288.767 415.3 290.69C415.37 291.36 415.36 291.89 415.38 292.25C415.408 292.432 415.408 292.618 415.38 292.8C415.38 292.8 415.29 292.05 415.12 290.71C414.301 283.441 411.159 276.631 406.162 271.29C401.165 265.948 394.578 262.361 387.38 261.06C385.502 260.706 383.6 260.502 381.69 260.45C380.34 260.46 379.59 260.48 379.59 260.44Z" fill="#263238"/>
<path d="M409.47 275.83C408.819 276.252 408.117 276.588 407.38 276.83C406.05 277.35 404.21 278.01 402.14 278.67C400.07 279.33 398.14 279.85 396.8 280.18C396.065 280.409 395.307 280.556 394.54 280.62C395.234 280.288 395.962 280.03 396.71 279.85L401.99 278.2L407.26 276.5C407.973 276.206 408.713 275.981 409.47 275.83V275.83Z" fill="#263238"/>
<path d="M402.94 258.29C403.513 261.348 403.594 264.477 403.18 267.56C402.972 266.026 402.889 264.478 402.93 262.93C402.81 261.386 402.813 259.834 402.94 258.29V258.29Z" fill="#263238"/>
<path d="M373.25 267.79C374.216 267.348 375.22 266.993 376.25 266.73C378.14 266.15 380.76 265.41 383.69 264.73C386.62 264.05 389.28 263.48 391.23 263.14C392.27 262.911 393.327 262.767 394.39 262.71C393.377 263.046 392.341 263.307 391.29 263.49C389.37 263.91 386.72 264.49 383.8 265.21C380.88 265.93 378.25 266.59 376.35 267.09C375.335 267.396 374.299 267.63 373.25 267.79V267.79Z" fill="#263238"/>
<path d="M396 296.06C392.44 293.36 388.66 292.83 384.19 293C379.71 293.3 375.325 294.432 371.26 296.34C364.26 299.4 357.69 303.92 353.52 310.34C349.35 316.76 347.88 325.19 351.01 332.15C351.253 332.88 351.759 333.493 352.43 333.87C353.206 334.094 354.037 334.03 354.77 333.69C362.72 331.1 370.77 328.48 378.05 324.41C385.33 320.34 392.05 314.7 395.94 307.31C396.949 305.568 397.592 303.639 397.83 301.64C397.938 300.638 397.831 299.624 397.515 298.667C397.2 297.71 396.683 296.831 396 296.09" fill="#FFB92D"/>
<path d="M396 295.22C395.821 295.324 395.63 295.405 395.43 295.46L393.76 296.03L392.56 296.43C392.12 296.59 391.65 296.79 391.15 296.98C390.15 297.39 388.97 297.8 387.74 298.39L385.79 299.28C385.12 299.59 384.44 299.98 383.73 300.34C382.28 301.05 380.82 301.95 379.27 302.87C372.603 307.006 366.671 312.224 361.72 318.31C360.62 319.73 359.53 321.07 358.65 322.41C358.19 323.07 357.73 323.69 357.33 324.32L356.2 326.14C355.45 327.29 354.9 328.39 354.37 329.34C354.11 329.82 353.86 330.25 353.64 330.67L353.09 331.81L352.31 333.39C352.228 333.579 352.128 333.76 352.01 333.93C352.053 333.728 352.123 333.533 352.22 333.35L352.92 331.73C353.07 331.37 353.25 330.99 353.43 330.56C353.61 330.13 353.87 329.7 354.12 329.21C354.63 328.21 355.17 327.12 355.9 325.96L357.01 324.11C357.4 323.47 357.86 322.84 358.31 322.17C359.18 320.81 360.31 319.46 361.37 318.02C363.857 314.963 366.582 312.107 369.52 309.48C372.503 306.902 375.682 304.562 379.03 302.48C380.6 301.57 382.08 300.67 383.54 299.98C384.26 299.62 384.94 299.24 385.63 298.93L387.63 298.07C388.88 297.49 390.06 297.07 391.08 296.72C391.59 296.54 392.08 296.35 392.51 296.21L393.73 295.85L395.43 295.36C395.617 295.303 395.808 295.256 396 295.22V295.22Z" fill="#263238"/>
<path d="M368.16 310.31C365.326 311.408 362.431 312.343 359.49 313.11C356.594 314.041 353.649 314.815 350.67 315.43C353.512 314.344 356.409 313.409 359.35 312.63C362.243 311.701 365.184 310.927 368.16 310.31V310.31Z" fill="#263238"/>
<path d="M367.81 329.46C367.654 328.569 367.59 327.664 367.62 326.76C367.57 325.09 367.56 322.76 367.62 320.23C367.68 317.7 367.82 315.37 367.96 313.7C367.992 312.795 368.106 311.895 368.3 311.01C368.38 311.912 368.38 312.818 368.3 313.72C368.25 315.55 368.18 317.78 368.1 320.24C368.02 322.7 367.98 324.93 367.94 326.76C367.972 327.662 367.928 328.565 367.81 329.46Z" fill="#263238"/>
<path d="M384.21 321.11C384.07 321.11 383.64 316.42 383.21 310.62C382.78 304.82 382.59 300.11 382.73 300.1C382.87 300.09 383.3 304.78 383.73 310.59C384.16 316.4 384.35 321.1 384.21 321.11Z" fill="#263238"/>
<path d="M363.79 299.64C364.713 299.538 365.643 299.512 366.57 299.56C368.29 299.56 370.66 299.62 373.27 299.71C375.88 299.8 378.27 299.9 379.96 300C380.89 300.004 381.817 300.094 382.73 300.27C381.808 300.385 380.877 300.412 379.95 300.35C378.24 300.35 375.87 300.29 373.25 300.21C370.63 300.13 368.25 300.01 366.56 299.91C365.63 299.906 364.703 299.816 363.79 299.64V299.64Z" fill="#263238"/>
<path d="M404.79 358.56C404.758 358.371 404.738 358.181 404.73 357.99C404.73 357.56 404.73 356.99 404.66 356.36C404.6 354.95 404.58 352.89 404.66 350.36C404.74 347.83 404.87 344.81 405.17 341.48C405.47 338.15 405.96 334.48 406.63 330.67C407.3 326.86 408.14 323.27 408.99 320.03C409.84 316.79 410.75 313.91 411.58 311.51C412.41 309.11 413.12 307.2 413.67 305.89L414.3 304.39C414.366 304.212 414.45 304.041 414.55 303.88C414.527 304.066 414.476 304.248 414.4 304.42C414.25 304.83 414.07 305.33 413.85 305.96C413.36 307.29 412.69 309.22 411.91 311.62C411.13 314.02 410.28 316.91 409.43 320.14C408.58 323.37 407.8 326.97 407.12 330.76C406.44 334.55 405.97 338.2 405.63 341.52C405.29 344.84 405.1 347.85 405.01 350.37C404.92 352.89 404.87 354.94 404.88 356.37C404.88 357.03 404.88 357.57 404.88 358C404.873 358.19 404.843 358.378 404.79 358.56V358.56Z" fill="#263238"/>
<path d="M407 330.26C406.518 330.922 405.964 331.529 405.35 332.07C404.27 333.14 402.75 334.58 401.01 336.07C399.27 337.56 397.65 338.92 396.45 339.85C395.834 340.385 395.164 340.854 394.45 341.25C394.995 340.633 395.597 340.071 396.25 339.57L400.7 335.7L405.13 331.79C405.704 331.223 406.33 330.711 407 330.26Z" fill="#263238"/>
<path d="M420.11 340.83C419.458 340.066 418.869 339.25 418.35 338.39C417.21 336.74 415.81 334.68 414.25 332.39C412.69 330.1 411.25 328.11 410.07 326.47C409.444 325.683 408.883 324.847 408.39 323.97C409.123 324.672 409.793 325.439 410.39 326.26C411.54 327.72 413.08 329.78 414.7 332.11C416.32 334.44 417.7 336.6 418.7 338.18C419.246 339.021 419.718 339.907 420.11 340.83V340.83Z" fill="#263238"/>
<path d="M413.23 307.58C413.31 307.69 408.95 310.63 403.49 314.13C398.03 317.63 393.56 320.39 393.49 320.27C393.42 320.15 397.78 317.27 403.23 313.71C408.68 310.15 413.16 307.46 413.23 307.58Z" fill="#263238"/>
<path d="M425.53 320.85C423.217 318.942 421.014 316.906 418.93 314.75C416.732 312.714 414.645 310.561 412.68 308.3C414.993 310.208 417.196 312.244 419.28 314.4C421.481 316.433 423.568 318.586 425.53 320.85V320.85Z" fill="#263238"/>
<path d="M428.62 320.58L432.37 320.27C435.023 320.049 437.598 319.261 439.92 317.96C441.056 317.293 442.236 316.701 443.45 316.19C448.08 314.33 453.24 314.66 458.22 314.41C466.376 314.001 474.366 311.96 481.72 308.41C482.143 308.213 482.493 307.888 482.72 307.48C483.49 306.08 482.06 304.83 480.83 304.08C474.52 300.19 468.1 296.26 460.95 294.33C453.8 292.4 445.68 292.72 439.58 296.92C432.41 301.85 429.8 311.98 428.58 320.59" fill="#FFB92D"/>
<path d="M482.83 307C482.609 306.929 482.398 306.831 482.2 306.71L480.42 305.78C478.88 304.97 476.67 303.78 473.87 302.43C470.61 300.826 467.213 299.518 463.72 298.52C459.453 297.3 454.987 296.94 450.58 297.46C446.159 297.947 441.983 299.736 438.58 302.6C435.927 305.07 433.804 308.054 432.34 311.37C431.318 313.599 430.41 315.879 429.62 318.2C429.35 318.98 429.12 319.61 428.96 320.08C428.897 320.307 428.806 320.525 428.69 320.73C428.734 320.5 428.791 320.273 428.86 320.05C429.01 319.57 429.2 318.93 429.44 318.14C430.157 315.783 431.019 313.472 432.02 311.22C433.456 307.816 435.589 304.751 438.28 302.22C441.733 299.273 445.989 297.427 450.5 296.92C454.977 296.391 459.514 296.772 463.84 298.04C467.347 299.053 470.752 300.392 474.01 302.04C476.8 303.42 479.01 304.67 480.51 305.53L482.24 306.53C482.449 306.67 482.647 306.827 482.83 307V307Z" fill="#263238"/>
<path d="M473.84 311.84C473.76 311.96 468.84 308.84 462.91 304.77C456.98 300.7 452.17 297.4 452.25 297.28C452.33 297.16 457.25 300.34 463.18 304.36C469.11 308.38 473.92 311.73 473.84 311.84Z" fill="#263238"/>
<path d="M469.14 296.82C467.918 297.287 466.627 297.544 465.32 297.58C464.026 297.779 462.708 297.762 461.42 297.53C462.687 297.264 463.976 297.117 465.27 297.09C466.549 296.884 467.844 296.794 469.14 296.82V296.82Z" fill="#263238"/>
<path d="M447.19 292.88C446.796 294.016 446.254 295.095 445.58 296.09C445.05 297.175 444.377 298.184 443.58 299.09C444.497 296.872 445.722 294.795 447.22 292.92L447.19 292.88Z" fill="#263238"/>
<path d="M451.57 314.73C450.746 314.382 449.959 313.953 449.22 313.45C447.8 312.59 445.89 311.33 443.85 309.85C441.81 308.37 440.01 306.96 438.71 305.94C437.995 305.418 437.326 304.836 436.71 304.2C437.505 304.608 438.255 305.098 438.95 305.66L444.17 309.45C446.17 310.93 448.08 312.22 449.44 313.15C450.192 313.618 450.904 314.146 451.57 314.73V314.73Z" fill="#263238"/>
<path d="M434.13 336.49C430.56 335.54 426.31 339.02 425.57 342.64C424.83 346.26 426.19 349.96 427.78 353.29C431.181 360.763 436.231 367.368 442.55 372.61C448.94 377.7 456.95 380.96 465.12 380.92C463.61 373.92 465.52 366.58 464.68 359.46C463.936 353.194 461.091 347.365 456.609 342.923C452.127 338.481 446.273 335.688 440 335C437.72 334.76 435.08 334.4 434.17 336.51" fill="#FFB92D"/>
<path d="M465.12 380.92C464.944 380.86 464.777 380.779 464.62 380.68C464.145 380.428 463.696 380.13 463.28 379.79C461.782 378.485 460.578 376.876 459.75 375.07C459.19 373.97 458.55 372.77 457.93 371.44C457.31 370.11 456.68 368.68 456.01 367.19C455.318 365.629 454.53 364.113 453.65 362.65C452.679 361.097 451.593 359.62 450.4 358.23C447.95 355.36 445.33 352.88 443.06 350.51C441.004 348.435 439.13 346.186 437.46 343.79C436.347 342.162 435.428 340.41 434.72 338.57C434.536 338.065 434.379 337.551 434.25 337.03C434.196 336.853 434.156 336.673 434.13 336.49C434.18 336.49 434.38 337.22 434.9 338.49C435.665 340.284 436.62 341.99 437.75 343.58C439.445 345.929 441.327 348.136 443.38 350.18C445.67 352.52 448.31 355 450.78 357.9C451.988 359.31 453.084 360.811 454.06 362.39C454.945 363.871 455.733 365.408 456.42 366.99L458.3 371.26C458.9 372.58 459.52 373.79 460.07 374.9C460.848 376.686 461.981 378.296 463.4 379.63C464.45 380.54 465.15 380.87 465.12 380.92Z" fill="#263238"/>
<path d="M446.66 375.09C446.683 374.28 446.793 373.476 446.99 372.69C447.27 371.22 447.73 369.2 448.34 367C448.95 364.8 449.63 362.84 450.16 361.44C450.406 360.664 450.742 359.919 451.16 359.22C451.021 360.018 450.806 360.802 450.52 361.56C450.08 362.98 449.47 364.95 448.85 367.14C448.23 369.33 447.73 371.32 447.36 372.77C447.199 373.563 446.964 374.34 446.66 375.09V375.09Z" fill="#263238"/>
<path d="M464.45 357.88C463.594 357.767 462.751 357.576 461.93 357.31C460.39 356.9 458.27 356.31 455.93 355.82C453.59 355.33 451.41 354.87 449.84 354.58C448.986 354.466 448.142 354.278 447.32 354.02C448.185 354 449.05 354.071 449.9 354.23C451.48 354.44 453.66 354.8 456.03 355.34C458.4 355.88 460.53 356.48 462.03 356.97C462.866 357.19 463.677 357.495 464.45 357.88Z" fill="#263238"/>
<path d="M433.41 362.88C433.445 361.942 433.576 361.011 433.8 360.1C434.11 358.4 434.61 356.05 435.28 353.49C435.95 350.93 436.66 348.64 437.21 347C437.452 346.098 437.787 345.223 438.21 344.39C438.048 345.313 437.817 346.222 437.52 347.11C437.05 348.77 436.39 351.11 435.73 353.62C435.07 356.13 434.51 358.49 434.11 360.18C433.954 361.098 433.719 362.002 433.41 362.88Z" fill="#263238"/>
<path d="M456.26 342.89C456.26 343.02 451.78 342.66 446.26 342.08C442.94 341.814 439.636 341.38 436.36 340.78C439.705 340.877 443.043 341.148 446.36 341.59C449.68 341.857 452.984 342.29 456.26 342.89V342.89Z" fill="#263238"/>
<path d="M453 396.94C453 397.08 437.33 397.19 418 397.19C398.67 397.19 383 397.08 383 396.94C383 396.8 398.66 396.69 418 396.69C437.34 396.69 453 396.81 453 396.94Z" fill="#455A64"/>
<path d="M442.09 417.11C442.09 417.24 431.53 417.36 418.51 417.36C405.49 417.36 394.93 417.24 394.93 417.11C394.93 416.98 405.49 416.86 418.51 416.86C431.53 416.86 442.09 417 442.09 417.11Z" fill="#455A64"/>
<path d="M442.5 420C442.5 420.14 431.94 420.25 418.92 420.25C405.9 420.25 395.34 420.14 395.34 420C395.34 419.86 405.9 419.75 418.92 419.75C431.94 419.75 442.5 419.85 442.5 420Z" fill="#455A64"/>
<path d="M442.5 414.73C442.5 414.87 431.58 414.98 418.11 414.98C404.64 414.98 393.72 414.87 393.72 414.73C393.72 414.59 404.64 414.48 418.11 414.48C431.58 414.48 442.5 414.59 442.5 414.73Z" fill="#455A64"/>
<path d="M225.907 328.112C225.907 329.04 225.587 329.813 224.947 330.432C224.317 331.04 223.352 331.344 222.051 331.344H219.907V336H218.451V324.848H222.051C223.309 324.848 224.264 325.152 224.915 325.76C225.576 326.368 225.907 327.152 225.907 328.112ZM222.051 330.144C222.861 330.144 223.459 329.968 223.843 329.616C224.227 329.264 224.419 328.763 224.419 328.112C224.419 326.736 223.629 326.048 222.051 326.048H219.907V330.144H222.051ZM233.588 336L230.932 331.44H229.172V336H227.716V324.848H231.316C232.159 324.848 232.868 324.992 233.444 325.28C234.031 325.568 234.468 325.957 234.756 326.448C235.044 326.939 235.188 327.499 235.188 328.128C235.188 328.896 234.964 329.573 234.516 330.16C234.079 330.747 233.418 331.136 232.532 331.328L235.332 336H233.588ZM229.172 330.272H231.316C232.106 330.272 232.698 330.08 233.092 329.696C233.487 329.301 233.684 328.779 233.684 328.128C233.684 327.467 233.487 326.955 233.092 326.592C232.708 326.229 232.116 326.048 231.316 326.048H229.172V330.272ZM242.507 336.112C241.472 336.112 240.528 335.872 239.675 335.392C238.821 334.901 238.144 334.224 237.643 333.36C237.152 332.485 236.907 331.504 236.907 330.416C236.907 329.328 237.152 328.352 237.643 327.488C238.144 326.613 238.821 325.936 239.675 325.456C240.528 324.965 241.472 324.72 242.507 324.72C243.552 324.72 244.501 324.965 245.355 325.456C246.208 325.936 246.88 326.608 247.371 327.472C247.861 328.336 248.107 329.317 248.107 330.416C248.107 331.515 247.861 332.496 247.371 333.36C246.88 334.224 246.208 334.901 245.355 335.392C244.501 335.872 243.552 336.112 242.507 336.112ZM242.507 334.848C243.285 334.848 243.984 334.667 244.603 334.304C245.232 333.941 245.723 333.424 246.075 332.752C246.437 332.08 246.619 331.301 246.619 330.416C246.619 329.52 246.437 328.741 246.075 328.08C245.723 327.408 245.237 326.891 244.619 326.528C244 326.165 243.296 325.984 242.507 325.984C241.717 325.984 241.013 326.165 240.395 326.528C239.776 326.891 239.285 327.408 238.923 328.08C238.571 328.741 238.395 329.52 238.395 330.416C238.395 331.301 238.571 332.08 238.923 332.752C239.285 333.424 239.776 333.941 240.395 334.304C241.024 334.667 241.728 334.848 242.507 334.848ZM249.485 330.416C249.485 329.328 249.73 328.352 250.221 327.488C250.712 326.613 251.378 325.931 252.221 325.44C253.074 324.949 254.018 324.704 255.053 324.704C256.269 324.704 257.33 324.997 258.237 325.584C259.144 326.171 259.805 327.003 260.221 328.08H258.477C258.168 327.408 257.72 326.891 257.133 326.528C256.557 326.165 255.864 325.984 255.053 325.984C254.274 325.984 253.576 326.165 252.957 326.528C252.338 326.891 251.853 327.408 251.501 328.08C251.149 328.741 250.973 329.52 250.973 330.416C250.973 331.301 251.149 332.08 251.501 332.752C251.853 333.413 252.338 333.925 252.957 334.288C253.576 334.651 254.274 334.832 255.053 334.832C255.864 334.832 256.557 334.656 257.133 334.304C257.72 333.941 258.168 333.424 258.477 332.752H260.221C259.805 333.819 259.144 334.645 258.237 335.232C257.33 335.808 256.269 336.096 255.053 336.096C254.018 336.096 253.074 335.856 252.221 335.376C251.378 334.885 250.712 334.208 250.221 333.344C249.73 332.48 249.485 331.504 249.485 330.416ZM263.844 326.032V329.76H267.908V330.96H263.844V334.8H268.388V336H262.388V324.832H268.388V326.032H263.844ZM274.127 336.112C273.391 336.112 272.73 335.984 272.143 335.728C271.567 335.461 271.114 335.099 270.783 334.64C270.453 334.171 270.282 333.632 270.271 333.024H271.823C271.877 333.547 272.09 333.989 272.463 334.352C272.847 334.704 273.402 334.88 274.127 334.88C274.821 334.88 275.365 334.709 275.759 334.368C276.165 334.016 276.367 333.568 276.367 333.024C276.367 332.597 276.25 332.251 276.015 331.984C275.781 331.717 275.487 331.515 275.135 331.376C274.783 331.237 274.309 331.088 273.711 330.928C272.975 330.736 272.383 330.544 271.935 330.352C271.498 330.16 271.119 329.861 270.799 329.456C270.49 329.04 270.335 328.485 270.335 327.792C270.335 327.184 270.49 326.645 270.799 326.176C271.109 325.707 271.541 325.344 272.095 325.088C272.661 324.832 273.306 324.704 274.031 324.704C275.077 324.704 275.93 324.965 276.591 325.488C277.263 326.011 277.642 326.704 277.727 327.568H276.127C276.074 327.141 275.85 326.768 275.455 326.448C275.061 326.117 274.538 325.952 273.887 325.952C273.279 325.952 272.783 326.112 272.399 326.432C272.015 326.741 271.823 327.179 271.823 327.744C271.823 328.149 271.935 328.48 272.159 328.736C272.394 328.992 272.677 329.189 273.007 329.328C273.349 329.456 273.823 329.605 274.431 329.776C275.167 329.979 275.759 330.181 276.207 330.384C276.655 330.576 277.039 330.88 277.359 331.296C277.679 331.701 277.839 332.256 277.839 332.96C277.839 333.504 277.695 334.016 277.407 334.496C277.119 334.976 276.693 335.365 276.127 335.664C275.562 335.963 274.895 336.112 274.127 336.112ZM283.518 336.112C282.782 336.112 282.121 335.984 281.534 335.728C280.958 335.461 280.505 335.099 280.174 334.64C279.843 334.171 279.673 333.632 279.662 333.024H281.214C281.267 333.547 281.481 333.989 281.854 334.352C282.238 334.704 282.793 334.88 283.518 334.88C284.211 334.88 284.755 334.709 285.15 334.368C285.555 334.016 285.758 333.568 285.758 333.024C285.758 332.597 285.641 332.251 285.406 331.984C285.171 331.717 284.878 331.515 284.526 331.376C284.174 331.237 283.699 331.088 283.102 330.928C282.366 330.736 281.774 330.544 281.326 330.352C280.889 330.16 280.51 329.861 280.19 329.456C279.881 329.04 279.726 328.485 279.726 327.792C279.726 327.184 279.881 326.645 280.19 326.176C280.499 325.707 280.931 325.344 281.486 325.088C282.051 324.832 282.697 324.704 283.422 324.704C284.467 324.704 285.321 324.965 285.982 325.488C286.654 326.011 287.033 326.704 287.118 327.568H285.518C285.465 327.141 285.241 326.768 284.846 326.448C284.451 326.117 283.929 325.952 283.278 325.952C282.67 325.952 282.174 326.112 281.79 326.432C281.406 326.741 281.214 327.179 281.214 327.744C281.214 328.149 281.326 328.48 281.55 328.736C281.785 328.992 282.067 329.189 282.398 329.328C282.739 329.456 283.214 329.605 283.822 329.776C284.558 329.979 285.15 330.181 285.598 330.384C286.046 330.576 286.43 330.88 286.75 331.296C287.07 331.701 287.23 332.256 287.23 332.96C287.23 333.504 287.086 334.016 286.798 334.496C286.51 334.976 286.083 335.365 285.518 335.664C284.953 335.963 284.286 336.112 283.518 336.112ZM290.829 324.848V336H289.373V324.848H290.829ZM302.078 336H300.622L294.766 327.12V336H293.31V324.832H294.766L300.622 333.696V324.832H302.078V336ZM313.008 328.08C312.699 327.429 312.251 326.928 311.664 326.576C311.077 326.213 310.395 326.032 309.616 326.032C308.837 326.032 308.133 326.213 307.504 326.576C306.885 326.928 306.395 327.44 306.032 328.112C305.68 328.773 305.504 329.541 305.504 330.416C305.504 331.291 305.68 332.059 306.032 332.72C306.395 333.381 306.885 333.893 307.504 334.256C308.133 334.608 308.837 334.784 309.616 334.784C310.704 334.784 311.6 334.459 312.304 333.808C313.008 333.157 313.419 332.277 313.536 331.168H309.088V329.984H315.088V331.104C315.003 332.021 314.715 332.864 314.224 333.632C313.733 334.389 313.088 334.992 312.288 335.44C311.488 335.877 310.597 336.096 309.616 336.096C308.581 336.096 307.637 335.856 306.784 335.376C305.931 334.885 305.253 334.208 304.752 333.344C304.261 332.48 304.016 331.504 304.016 330.416C304.016 329.328 304.261 328.352 304.752 327.488C305.253 326.613 305.931 325.936 306.784 325.456C307.637 324.965 308.581 324.72 309.616 324.72C310.8 324.72 311.845 325.013 312.752 325.6C313.669 326.187 314.336 327.013 314.752 328.08H313.008Z" fill="#455A64"/>
</svg>
